<mxfile host="app.diagrams.net" modified="2023-12-18T22:30:17.646Z" agent="Mozilla/5.0 (Windows NT 10.0; Win64; x64) AppleWebKit/537.36 (KHTML, like Gecko) Chrome/119.0.0.0 Safari/537.36 OPR/105.0.0.0" etag="5fTztlgTrbwsLWFx6XjM" version="22.1.11" type="github">
  <diagram name="Página-1" id="44kaRgDa5pvyj0i5NGTn">
    <mxGraphModel dx="1560" dy="814" grid="1" gridSize="10" guides="1" tooltips="1" connect="1" arrows="1" fold="1" page="1" pageScale="1" pageWidth="1169" pageHeight="1654" background="none" math="0" shadow="0">
      <root>
        <mxCell id="0" />
        <mxCell id="1" parent="0" />
        <mxCell id="yPODJ5ue4MWIPqrNUil7-4" value="" style="edgeStyle=orthogonalEdgeStyle;rounded=0;orthogonalLoop=1;jettySize=auto;html=1;endArrow=none;endFill=0;" parent="1" source="yPODJ5ue4MWIPqrNUil7-1" target="yPODJ5ue4MWIPqrNUil7-3" edge="1">
          <mxGeometry relative="1" as="geometry" />
        </mxCell>
        <mxCell id="yPODJ5ue4MWIPqrNUil7-1" value="ESTUDIANTE" style="rounded=0;whiteSpace=wrap;html=1;fillColor=#dae8fc;strokeColor=#6c8ebf;" parent="1" vertex="1">
          <mxGeometry x="180" y="110" width="120" height="60" as="geometry" />
        </mxCell>
        <mxCell id="VDzh7EiB1U5KI5voId9q-119" style="edgeStyle=orthogonalEdgeStyle;rounded=0;orthogonalLoop=1;jettySize=auto;html=1;entryX=0.5;entryY=1;entryDx=0;entryDy=0;endArrow=none;endFill=0;" parent="1" source="yPODJ5ue4MWIPqrNUil7-2" target="VDzh7EiB1U5KI5voId9q-118" edge="1">
          <mxGeometry relative="1" as="geometry" />
        </mxCell>
        <mxCell id="yPODJ5ue4MWIPqrNUil7-2" value="PROGRAMA ACADÉMICO" style="rounded=0;whiteSpace=wrap;html=1;fillColor=#dae8fc;strokeColor=#6c8ebf;" parent="1" vertex="1">
          <mxGeometry x="480" y="110" width="120" height="60" as="geometry" />
        </mxCell>
        <mxCell id="yPODJ5ue4MWIPqrNUil7-5" value="" style="edgeStyle=orthogonalEdgeStyle;rounded=0;orthogonalLoop=1;jettySize=auto;html=1;endArrow=none;endFill=0;" parent="1" source="yPODJ5ue4MWIPqrNUil7-3" target="yPODJ5ue4MWIPqrNUil7-2" edge="1">
          <mxGeometry relative="1" as="geometry" />
        </mxCell>
        <mxCell id="yPODJ5ue4MWIPqrNUil7-3" value="asociado" style="rhombus;whiteSpace=wrap;html=1;fillColor=#d5e8d4;strokeColor=#82b366;" parent="1" vertex="1">
          <mxGeometry x="350" y="100" width="80" height="80" as="geometry" />
        </mxCell>
        <mxCell id="yPODJ5ue4MWIPqrNUil7-6" value="1:1" style="text;html=1;strokeColor=none;fillColor=none;align=center;verticalAlign=middle;whiteSpace=wrap;rounded=0;" parent="1" vertex="1">
          <mxGeometry x="420" y="110" width="60" height="30" as="geometry" />
        </mxCell>
        <mxCell id="yPODJ5ue4MWIPqrNUil7-7" value="1:N" style="text;html=1;strokeColor=none;fillColor=none;align=center;verticalAlign=middle;whiteSpace=wrap;rounded=0;" parent="1" vertex="1">
          <mxGeometry x="300" y="110" width="60" height="30" as="geometry" />
        </mxCell>
        <mxCell id="yPODJ5ue4MWIPqrNUil7-8" value="1:N" style="text;html=1;strokeColor=none;fillColor=none;align=center;verticalAlign=middle;whiteSpace=wrap;rounded=0;" parent="1" vertex="1">
          <mxGeometry x="360" y="80" width="60" height="30" as="geometry" />
        </mxCell>
        <mxCell id="yPODJ5ue4MWIPqrNUil7-9" value="" style="edgeStyle=orthogonalEdgeStyle;rounded=0;orthogonalLoop=1;jettySize=auto;html=1;endArrow=none;endFill=0;" parent="1" source="yPODJ5ue4MWIPqrNUil7-10" target="yPODJ5ue4MWIPqrNUil7-13" edge="1">
          <mxGeometry relative="1" as="geometry" />
        </mxCell>
        <mxCell id="VDzh7EiB1U5KI5voId9q-273" style="edgeStyle=orthogonalEdgeStyle;rounded=0;orthogonalLoop=1;jettySize=auto;html=1;entryX=1;entryY=0.5;entryDx=0;entryDy=0;endArrow=none;endFill=0;" parent="1" source="yPODJ5ue4MWIPqrNUil7-10" target="VDzh7EiB1U5KI5voId9q-272" edge="1">
          <mxGeometry relative="1" as="geometry" />
        </mxCell>
        <mxCell id="yPODJ5ue4MWIPqrNUil7-10" value="CURSO" style="rounded=0;whiteSpace=wrap;html=1;fillColor=#dae8fc;strokeColor=#6c8ebf;" parent="1" vertex="1">
          <mxGeometry x="185" y="260" width="120" height="60" as="geometry" />
        </mxCell>
        <mxCell id="yPODJ5ue4MWIPqrNUil7-11" value="PROGRAMA ACADÉMICO" style="rounded=0;whiteSpace=wrap;html=1;fillColor=#dae8fc;strokeColor=#6c8ebf;" parent="1" vertex="1">
          <mxGeometry x="485" y="260" width="120" height="60" as="geometry" />
        </mxCell>
        <mxCell id="yPODJ5ue4MWIPqrNUil7-12" value="" style="edgeStyle=orthogonalEdgeStyle;rounded=0;orthogonalLoop=1;jettySize=auto;html=1;endArrow=none;endFill=0;" parent="1" source="yPODJ5ue4MWIPqrNUil7-13" target="yPODJ5ue4MWIPqrNUil7-11" edge="1">
          <mxGeometry relative="1" as="geometry" />
        </mxCell>
        <mxCell id="yPODJ5ue4MWIPqrNUil7-13" value="pertenece" style="rhombus;whiteSpace=wrap;html=1;fillColor=#d5e8d4;strokeColor=#82b366;" parent="1" vertex="1">
          <mxGeometry x="355" y="250" width="80" height="80" as="geometry" />
        </mxCell>
        <mxCell id="yPODJ5ue4MWIPqrNUil7-14" value="1:1" style="text;html=1;strokeColor=none;fillColor=none;align=center;verticalAlign=middle;whiteSpace=wrap;rounded=0;" parent="1" vertex="1">
          <mxGeometry x="425" y="260" width="60" height="30" as="geometry" />
        </mxCell>
        <mxCell id="yPODJ5ue4MWIPqrNUil7-15" value="1:N" style="text;html=1;strokeColor=none;fillColor=none;align=center;verticalAlign=middle;whiteSpace=wrap;rounded=0;" parent="1" vertex="1">
          <mxGeometry x="305" y="260" width="60" height="30" as="geometry" />
        </mxCell>
        <mxCell id="yPODJ5ue4MWIPqrNUil7-16" value="1:N" style="text;html=1;strokeColor=none;fillColor=none;align=center;verticalAlign=middle;whiteSpace=wrap;rounded=0;" parent="1" vertex="1">
          <mxGeometry x="365" y="230" width="60" height="30" as="geometry" />
        </mxCell>
        <mxCell id="yPODJ5ue4MWIPqrNUil7-17" value="" style="edgeStyle=orthogonalEdgeStyle;rounded=0;orthogonalLoop=1;jettySize=auto;html=1;endArrow=none;endFill=0;" parent="1" source="yPODJ5ue4MWIPqrNUil7-18" target="yPODJ5ue4MWIPqrNUil7-21" edge="1">
          <mxGeometry relative="1" as="geometry" />
        </mxCell>
        <mxCell id="VDzh7EiB1U5KI5voId9q-110" style="edgeStyle=orthogonalEdgeStyle;rounded=0;orthogonalLoop=1;jettySize=auto;html=1;entryX=0.5;entryY=1;entryDx=0;entryDy=0;endArrow=none;endFill=0;" parent="1" source="yPODJ5ue4MWIPqrNUil7-18" target="VDzh7EiB1U5KI5voId9q-109" edge="1">
          <mxGeometry relative="1" as="geometry" />
        </mxCell>
        <mxCell id="yPODJ5ue4MWIPqrNUil7-18" value="PROFESOR" style="rounded=0;whiteSpace=wrap;html=1;fillColor=#dae8fc;strokeColor=#6c8ebf;" parent="1" vertex="1">
          <mxGeometry x="185" y="422" width="120" height="60" as="geometry" />
        </mxCell>
        <mxCell id="yPODJ5ue4MWIPqrNUil7-19" value="CURSO" style="rounded=0;whiteSpace=wrap;html=1;fillColor=#dae8fc;strokeColor=#6c8ebf;" parent="1" vertex="1">
          <mxGeometry x="485" y="422" width="120" height="60" as="geometry" />
        </mxCell>
        <mxCell id="yPODJ5ue4MWIPqrNUil7-20" value="" style="edgeStyle=orthogonalEdgeStyle;rounded=0;orthogonalLoop=1;jettySize=auto;html=1;endArrow=none;endFill=0;" parent="1" source="yPODJ5ue4MWIPqrNUil7-21" target="yPODJ5ue4MWIPqrNUil7-19" edge="1">
          <mxGeometry relative="1" as="geometry" />
        </mxCell>
        <mxCell id="yPODJ5ue4MWIPqrNUil7-21" value="imparte" style="rhombus;whiteSpace=wrap;html=1;fillColor=#d5e8d4;strokeColor=#82b366;" parent="1" vertex="1">
          <mxGeometry x="355" y="412" width="80" height="80" as="geometry" />
        </mxCell>
        <mxCell id="yPODJ5ue4MWIPqrNUil7-22" value="1:N" style="text;html=1;strokeColor=none;fillColor=none;align=center;verticalAlign=middle;whiteSpace=wrap;rounded=0;" parent="1" vertex="1">
          <mxGeometry x="425" y="422" width="60" height="30" as="geometry" />
        </mxCell>
        <mxCell id="yPODJ5ue4MWIPqrNUil7-23" value="1:N" style="text;html=1;strokeColor=none;fillColor=none;align=center;verticalAlign=middle;whiteSpace=wrap;rounded=0;" parent="1" vertex="1">
          <mxGeometry x="305" y="422" width="60" height="30" as="geometry" />
        </mxCell>
        <mxCell id="yPODJ5ue4MWIPqrNUil7-24" value="N:M" style="text;html=1;strokeColor=none;fillColor=none;align=center;verticalAlign=middle;whiteSpace=wrap;rounded=0;" parent="1" vertex="1">
          <mxGeometry x="360" y="388" width="60" height="30" as="geometry" />
        </mxCell>
        <mxCell id="yPODJ5ue4MWIPqrNUil7-25" value="" style="edgeStyle=orthogonalEdgeStyle;rounded=0;orthogonalLoop=1;jettySize=auto;html=1;endArrow=none;endFill=0;" parent="1" source="yPODJ5ue4MWIPqrNUil7-26" target="yPODJ5ue4MWIPqrNUil7-29" edge="1">
          <mxGeometry relative="1" as="geometry" />
        </mxCell>
        <mxCell id="yPODJ5ue4MWIPqrNUil7-26" value="ASIGNATURA" style="rounded=0;whiteSpace=wrap;html=1;fillColor=#dae8fc;strokeColor=#6c8ebf;" parent="1" vertex="1">
          <mxGeometry x="185" y="656" width="120" height="60" as="geometry" />
        </mxCell>
        <mxCell id="yPODJ5ue4MWIPqrNUil7-27" value="CURSO" style="rounded=0;whiteSpace=wrap;html=1;fillColor=#dae8fc;strokeColor=#6c8ebf;" parent="1" vertex="1">
          <mxGeometry x="485" y="656" width="120" height="60" as="geometry" />
        </mxCell>
        <mxCell id="yPODJ5ue4MWIPqrNUil7-28" value="" style="edgeStyle=orthogonalEdgeStyle;rounded=0;orthogonalLoop=1;jettySize=auto;html=1;endArrow=none;endFill=0;" parent="1" source="yPODJ5ue4MWIPqrNUil7-29" target="yPODJ5ue4MWIPqrNUil7-27" edge="1">
          <mxGeometry relative="1" as="geometry" />
        </mxCell>
        <mxCell id="yPODJ5ue4MWIPqrNUil7-29" value="relacionada" style="rhombus;whiteSpace=wrap;html=1;fillColor=#d5e8d4;strokeColor=#82b366;" parent="1" vertex="1">
          <mxGeometry x="355" y="646" width="80" height="80" as="geometry" />
        </mxCell>
        <mxCell id="yPODJ5ue4MWIPqrNUil7-30" value="1:N" style="text;html=1;strokeColor=none;fillColor=none;align=center;verticalAlign=middle;whiteSpace=wrap;rounded=0;" parent="1" vertex="1">
          <mxGeometry x="425" y="656" width="60" height="30" as="geometry" />
        </mxCell>
        <mxCell id="yPODJ5ue4MWIPqrNUil7-31" value="1:N" style="text;html=1;strokeColor=none;fillColor=none;align=center;verticalAlign=middle;whiteSpace=wrap;rounded=0;" parent="1" vertex="1">
          <mxGeometry x="305" y="656" width="60" height="30" as="geometry" />
        </mxCell>
        <mxCell id="yPODJ5ue4MWIPqrNUil7-32" value="N:M" style="text;html=1;strokeColor=none;fillColor=none;align=center;verticalAlign=middle;whiteSpace=wrap;rounded=0;" parent="1" vertex="1">
          <mxGeometry x="365" y="624" width="60" height="30" as="geometry" />
        </mxCell>
        <mxCell id="yPODJ5ue4MWIPqrNUil7-50" value="" style="edgeStyle=orthogonalEdgeStyle;rounded=0;orthogonalLoop=1;jettySize=auto;html=1;endArrow=none;endFill=0;" parent="1" source="yPODJ5ue4MWIPqrNUil7-51" target="yPODJ5ue4MWIPqrNUil7-54" edge="1">
          <mxGeometry relative="1" as="geometry" />
        </mxCell>
        <mxCell id="yPODJ5ue4MWIPqrNUil7-51" value="AULA" style="rounded=0;whiteSpace=wrap;html=1;fillColor=#dae8fc;strokeColor=#6c8ebf;" parent="1" vertex="1">
          <mxGeometry x="165" y="804" width="120" height="60" as="geometry" />
        </mxCell>
        <mxCell id="yPODJ5ue4MWIPqrNUil7-52" value="CURSO" style="rounded=0;whiteSpace=wrap;html=1;fillColor=#dae8fc;strokeColor=#6c8ebf;" parent="1" vertex="1">
          <mxGeometry x="465" y="804" width="120" height="60" as="geometry" />
        </mxCell>
        <mxCell id="yPODJ5ue4MWIPqrNUil7-53" value="" style="edgeStyle=orthogonalEdgeStyle;rounded=0;orthogonalLoop=1;jettySize=auto;html=1;endArrow=none;endFill=0;" parent="1" source="yPODJ5ue4MWIPqrNUil7-54" target="yPODJ5ue4MWIPqrNUil7-52" edge="1">
          <mxGeometry relative="1" as="geometry" />
        </mxCell>
        <mxCell id="yPODJ5ue4MWIPqrNUil7-54" value="lleva a cabo" style="rhombus;whiteSpace=wrap;html=1;fillColor=#d5e8d4;strokeColor=#82b366;" parent="1" vertex="1">
          <mxGeometry x="335" y="794" width="80" height="80" as="geometry" />
        </mxCell>
        <mxCell id="yPODJ5ue4MWIPqrNUil7-55" value="1:N" style="text;html=1;strokeColor=none;fillColor=none;align=center;verticalAlign=middle;whiteSpace=wrap;rounded=0;" parent="1" vertex="1">
          <mxGeometry x="405" y="804" width="60" height="30" as="geometry" />
        </mxCell>
        <mxCell id="yPODJ5ue4MWIPqrNUil7-56" value="1:N" style="text;html=1;strokeColor=none;fillColor=none;align=center;verticalAlign=middle;whiteSpace=wrap;rounded=0;" parent="1" vertex="1">
          <mxGeometry x="285" y="804" width="60" height="30" as="geometry" />
        </mxCell>
        <mxCell id="yPODJ5ue4MWIPqrNUil7-57" value="N:M" style="text;html=1;strokeColor=none;fillColor=none;align=center;verticalAlign=middle;whiteSpace=wrap;rounded=0;" parent="1" vertex="1">
          <mxGeometry x="345" y="772" width="60" height="30" as="geometry" />
        </mxCell>
        <mxCell id="yPODJ5ue4MWIPqrNUil7-66" value="" style="edgeStyle=orthogonalEdgeStyle;rounded=0;orthogonalLoop=1;jettySize=auto;html=1;endArrow=none;endFill=0;exitX=1;exitY=0.5;exitDx=0;exitDy=0;" parent="1" target="yPODJ5ue4MWIPqrNUil7-70" edge="1">
          <mxGeometry relative="1" as="geometry">
            <mxPoint x="277.5" y="1148" as="sourcePoint" />
          </mxGeometry>
        </mxCell>
        <mxCell id="yPODJ5ue4MWIPqrNUil7-68" value="CURSO" style="rounded=0;whiteSpace=wrap;html=1;fillColor=#dae8fc;strokeColor=#6c8ebf;" parent="1" vertex="1">
          <mxGeometry x="467.5" y="1118" width="120" height="60" as="geometry" />
        </mxCell>
        <mxCell id="yPODJ5ue4MWIPqrNUil7-69" value="" style="edgeStyle=orthogonalEdgeStyle;rounded=0;orthogonalLoop=1;jettySize=auto;html=1;endArrow=none;endFill=0;" parent="1" source="yPODJ5ue4MWIPqrNUil7-70" target="yPODJ5ue4MWIPqrNUil7-68" edge="1">
          <mxGeometry relative="1" as="geometry" />
        </mxCell>
        <mxCell id="yPODJ5ue4MWIPqrNUil7-70" value="matriculado" style="rhombus;whiteSpace=wrap;html=1;fillColor=#d5e8d4;strokeColor=#82b366;" parent="1" vertex="1">
          <mxGeometry x="337.5" y="1108" width="80" height="80" as="geometry" />
        </mxCell>
        <mxCell id="yPODJ5ue4MWIPqrNUil7-71" value="1:N" style="text;html=1;strokeColor=none;fillColor=none;align=center;verticalAlign=middle;whiteSpace=wrap;rounded=0;" parent="1" vertex="1">
          <mxGeometry x="407.5" y="1118" width="60" height="30" as="geometry" />
        </mxCell>
        <mxCell id="yPODJ5ue4MWIPqrNUil7-72" value="1:N" style="text;html=1;strokeColor=none;fillColor=none;align=center;verticalAlign=middle;whiteSpace=wrap;rounded=0;" parent="1" vertex="1">
          <mxGeometry x="275" y="1118" width="60" height="30" as="geometry" />
        </mxCell>
        <mxCell id="yPODJ5ue4MWIPqrNUil7-73" value="N:M" style="text;html=1;strokeColor=none;fillColor=none;align=center;verticalAlign=middle;whiteSpace=wrap;rounded=0;" parent="1" vertex="1">
          <mxGeometry x="347.5" y="1086" width="60" height="30" as="geometry" />
        </mxCell>
        <mxCell id="yPODJ5ue4MWIPqrNUil7-83" value="" style="edgeStyle=orthogonalEdgeStyle;rounded=0;orthogonalLoop=1;jettySize=auto;html=1;endArrow=none;endFill=0;exitX=1;exitY=0.5;exitDx=0;exitDy=0;" parent="1" source="XF1m2_q1DX8hMy2PzHUQ-74" target="yPODJ5ue4MWIPqrNUil7-87" edge="1">
          <mxGeometry relative="1" as="geometry">
            <mxPoint x="282.5" y="1370" as="sourcePoint" />
            <Array as="points">
              <mxPoint x="255" y="1370" />
            </Array>
          </mxGeometry>
        </mxCell>
        <mxCell id="yPODJ5ue4MWIPqrNUil7-85" value="ASIGNATURA" style="rounded=0;whiteSpace=wrap;html=1;fillColor=#dae8fc;strokeColor=#6c8ebf;" parent="1" vertex="1">
          <mxGeometry x="462.5" y="1340" width="120" height="60" as="geometry" />
        </mxCell>
        <mxCell id="yPODJ5ue4MWIPqrNUil7-86" value="" style="edgeStyle=orthogonalEdgeStyle;rounded=0;orthogonalLoop=1;jettySize=auto;html=1;endArrow=none;endFill=0;" parent="1" source="yPODJ5ue4MWIPqrNUil7-87" target="yPODJ5ue4MWIPqrNUil7-85" edge="1">
          <mxGeometry relative="1" as="geometry" />
        </mxCell>
        <mxCell id="yPODJ5ue4MWIPqrNUil7-87" value="cursa" style="rhombus;whiteSpace=wrap;html=1;fillColor=#d5e8d4;strokeColor=#82b366;" parent="1" vertex="1">
          <mxGeometry x="332.5" y="1330" width="80" height="80" as="geometry" />
        </mxCell>
        <mxCell id="yPODJ5ue4MWIPqrNUil7-88" value="1:N" style="text;html=1;strokeColor=none;fillColor=none;align=center;verticalAlign=middle;whiteSpace=wrap;rounded=0;" parent="1" vertex="1">
          <mxGeometry x="402.5" y="1340" width="60" height="30" as="geometry" />
        </mxCell>
        <mxCell id="yPODJ5ue4MWIPqrNUil7-89" value="1:N" style="text;html=1;strokeColor=none;fillColor=none;align=center;verticalAlign=middle;whiteSpace=wrap;rounded=0;" parent="1" vertex="1">
          <mxGeometry x="265" y="1340" width="60" height="30" as="geometry" />
        </mxCell>
        <mxCell id="yPODJ5ue4MWIPqrNUil7-90" value="N:M" style="text;html=1;strokeColor=none;fillColor=none;align=center;verticalAlign=middle;whiteSpace=wrap;rounded=0;" parent="1" vertex="1">
          <mxGeometry x="342.5" y="1310" width="60" height="30" as="geometry" />
        </mxCell>
        <mxCell id="VDzh7EiB1U5KI5voId9q-13" style="edgeStyle=orthogonalEdgeStyle;rounded=0;orthogonalLoop=1;jettySize=auto;html=1;exitX=0.5;exitY=0;exitDx=0;exitDy=0;entryX=0.5;entryY=1;entryDx=0;entryDy=0;endArrow=none;endFill=0;" parent="1" source="yPODJ5ue4MWIPqrNUil7-92" target="yPODJ5ue4MWIPqrNUil7-87" edge="1">
          <mxGeometry relative="1" as="geometry" />
        </mxCell>
        <mxCell id="yPODJ5ue4MWIPqrNUil7-92" value="Notas" style="ellipse;whiteSpace=wrap;html=1;align=center;fillColor=#fff2cc;strokeColor=#d6b656;" parent="1" vertex="1">
          <mxGeometry x="322.5" y="1428" width="100" height="40" as="geometry" />
        </mxCell>
        <mxCell id="VDzh7EiB1U5KI5voId9q-2" value="EVENTO" style="rounded=0;whiteSpace=wrap;html=1;fillColor=#dae8fc;strokeColor=#6c8ebf;" parent="1" vertex="1">
          <mxGeometry x="462.5" y="1520" width="120" height="60" as="geometry" />
        </mxCell>
        <mxCell id="VDzh7EiB1U5KI5voId9q-3" value="UNIVERSIDAD" style="rounded=0;whiteSpace=wrap;html=1;fillColor=#dae8fc;strokeColor=#6c8ebf;" parent="1" vertex="1">
          <mxGeometry x="162.5" y="1520" width="120" height="60" as="geometry" />
        </mxCell>
        <mxCell id="VDzh7EiB1U5KI5voId9q-5" style="edgeStyle=orthogonalEdgeStyle;rounded=0;orthogonalLoop=1;jettySize=auto;html=1;entryX=0;entryY=0.5;entryDx=0;entryDy=0;endArrow=none;endFill=0;" parent="1" source="VDzh7EiB1U5KI5voId9q-4" target="VDzh7EiB1U5KI5voId9q-2" edge="1">
          <mxGeometry relative="1" as="geometry" />
        </mxCell>
        <mxCell id="VDzh7EiB1U5KI5voId9q-6" style="edgeStyle=orthogonalEdgeStyle;rounded=0;orthogonalLoop=1;jettySize=auto;html=1;entryX=1;entryY=0.5;entryDx=0;entryDy=0;endArrow=none;endFill=0;" parent="1" source="VDzh7EiB1U5KI5voId9q-4" target="VDzh7EiB1U5KI5voId9q-3" edge="1">
          <mxGeometry relative="1" as="geometry" />
        </mxCell>
        <mxCell id="VDzh7EiB1U5KI5voId9q-4" value="organiza" style="rhombus;whiteSpace=wrap;html=1;fillColor=#d5e8d4;strokeColor=#82b366;" parent="1" vertex="1">
          <mxGeometry x="332.5" y="1510" width="80" height="80" as="geometry" />
        </mxCell>
        <mxCell id="VDzh7EiB1U5KI5voId9q-151" value="" style="edgeStyle=orthogonalEdgeStyle;rounded=0;orthogonalLoop=1;jettySize=auto;html=1;endArrow=none;endFill=0;" parent="1" source="VDzh7EiB1U5KI5voId9q-7" target="VDzh7EiB1U5KI5voId9q-150" edge="1">
          <mxGeometry relative="1" as="geometry" />
        </mxCell>
        <mxCell id="VDzh7EiB1U5KI5voId9q-7" value="EVENTO" style="rounded=0;whiteSpace=wrap;html=1;fillColor=#dae8fc;strokeColor=#6c8ebf;" parent="1" vertex="1">
          <mxGeometry x="162.5" y="1722" width="120" height="60" as="geometry" />
        </mxCell>
        <mxCell id="VDzh7EiB1U5KI5voId9q-9" value="EMPRESA ASOCIADA" style="rounded=0;whiteSpace=wrap;html=1;fillColor=#dae8fc;strokeColor=#6c8ebf;" parent="1" vertex="1">
          <mxGeometry x="462.5" y="1722" width="120" height="60" as="geometry" />
        </mxCell>
        <mxCell id="VDzh7EiB1U5KI5voId9q-11" style="edgeStyle=orthogonalEdgeStyle;rounded=0;orthogonalLoop=1;jettySize=auto;html=1;entryX=1;entryY=0.5;entryDx=0;entryDy=0;endArrow=none;endFill=0;" parent="1" source="VDzh7EiB1U5KI5voId9q-10" target="VDzh7EiB1U5KI5voId9q-7" edge="1">
          <mxGeometry relative="1" as="geometry" />
        </mxCell>
        <mxCell id="VDzh7EiB1U5KI5voId9q-12" style="edgeStyle=orthogonalEdgeStyle;rounded=0;orthogonalLoop=1;jettySize=auto;html=1;endArrow=none;endFill=0;" parent="1" source="VDzh7EiB1U5KI5voId9q-10" target="VDzh7EiB1U5KI5voId9q-9" edge="1">
          <mxGeometry relative="1" as="geometry" />
        </mxCell>
        <mxCell id="VDzh7EiB1U5KI5voId9q-10" value="patrocinan" style="rhombus;whiteSpace=wrap;html=1;fillColor=#d5e8d4;strokeColor=#82b366;" parent="1" vertex="1">
          <mxGeometry x="332.5" y="1712" width="80" height="80" as="geometry" />
        </mxCell>
        <mxCell id="VDzh7EiB1U5KI5voId9q-14" value="0:N" style="text;html=1;align=center;verticalAlign=middle;resizable=0;points=[];autosize=1;strokeColor=none;fillColor=none;" parent="1" vertex="1">
          <mxGeometry x="417.5" y="1520" width="40" height="30" as="geometry" />
        </mxCell>
        <mxCell id="VDzh7EiB1U5KI5voId9q-15" value="0:1" style="text;html=1;align=center;verticalAlign=middle;resizable=0;points=[];autosize=1;strokeColor=none;fillColor=none;" parent="1" vertex="1">
          <mxGeometry x="287.5" y="1520" width="40" height="30" as="geometry" />
        </mxCell>
        <mxCell id="VDzh7EiB1U5KI5voId9q-16" value="1:N" style="text;html=1;align=center;verticalAlign=middle;resizable=0;points=[];autosize=1;strokeColor=none;fillColor=none;" parent="1" vertex="1">
          <mxGeometry x="352.5" y="1490" width="40" height="30" as="geometry" />
        </mxCell>
        <mxCell id="VDzh7EiB1U5KI5voId9q-17" value="1:N" style="text;html=1;align=center;verticalAlign=middle;resizable=0;points=[];autosize=1;strokeColor=none;fillColor=none;" parent="1" vertex="1">
          <mxGeometry x="417.5" y="1722" width="40" height="30" as="geometry" />
        </mxCell>
        <mxCell id="VDzh7EiB1U5KI5voId9q-18" value="0:N" style="text;html=1;align=center;verticalAlign=middle;resizable=0;points=[];autosize=1;strokeColor=none;fillColor=none;" parent="1" vertex="1">
          <mxGeometry x="287.5" y="1722" width="40" height="30" as="geometry" />
        </mxCell>
        <mxCell id="VDzh7EiB1U5KI5voId9q-19" value="N:M" style="text;html=1;align=center;verticalAlign=middle;resizable=0;points=[];autosize=1;strokeColor=none;fillColor=none;" parent="1" vertex="1">
          <mxGeometry x="347.5" y="1690" width="50" height="30" as="geometry" />
        </mxCell>
        <mxCell id="VDzh7EiB1U5KI5voId9q-30" value="BECA" style="rounded=0;whiteSpace=wrap;html=1;fillColor=#dae8fc;strokeColor=#6c8ebf;" parent="1" vertex="1">
          <mxGeometry x="460" y="1890" width="120" height="60" as="geometry" />
        </mxCell>
        <mxCell id="VDzh7EiB1U5KI5voId9q-32" style="edgeStyle=orthogonalEdgeStyle;rounded=0;orthogonalLoop=1;jettySize=auto;html=1;entryX=1;entryY=0.5;entryDx=0;entryDy=0;endArrow=none;endFill=0;" parent="1" source="VDzh7EiB1U5KI5voId9q-31" edge="1">
          <mxGeometry relative="1" as="geometry">
            <mxPoint x="280" y="1920" as="targetPoint" />
          </mxGeometry>
        </mxCell>
        <mxCell id="VDzh7EiB1U5KI5voId9q-33" style="edgeStyle=orthogonalEdgeStyle;rounded=0;orthogonalLoop=1;jettySize=auto;html=1;entryX=0;entryY=0.5;entryDx=0;entryDy=0;endArrow=none;endFill=0;" parent="1" source="VDzh7EiB1U5KI5voId9q-31" target="VDzh7EiB1U5KI5voId9q-30" edge="1">
          <mxGeometry relative="1" as="geometry" />
        </mxCell>
        <mxCell id="VDzh7EiB1U5KI5voId9q-31" value="recibe" style="rhombus;whiteSpace=wrap;html=1;fillColor=#d5e8d4;strokeColor=#82b366;" parent="1" vertex="1">
          <mxGeometry x="330" y="1880" width="80" height="80" as="geometry" />
        </mxCell>
        <mxCell id="VDzh7EiB1U5KI5voId9q-34" value="0:N" style="text;html=1;align=center;verticalAlign=middle;resizable=0;points=[];autosize=1;strokeColor=none;fillColor=none;" parent="1" vertex="1">
          <mxGeometry x="415" y="1890" width="40" height="30" as="geometry" />
        </mxCell>
        <mxCell id="VDzh7EiB1U5KI5voId9q-35" value="1:N" style="text;html=1;align=center;verticalAlign=middle;resizable=0;points=[];autosize=1;strokeColor=none;fillColor=none;" parent="1" vertex="1">
          <mxGeometry x="285" y="1890" width="40" height="30" as="geometry" />
        </mxCell>
        <mxCell id="VDzh7EiB1U5KI5voId9q-37" value="N:M" style="text;html=1;align=center;verticalAlign=middle;resizable=0;points=[];autosize=1;strokeColor=none;fillColor=none;" parent="1" vertex="1">
          <mxGeometry x="345" y="1860" width="50" height="30" as="geometry" />
        </mxCell>
        <mxCell id="VDzh7EiB1U5KI5voId9q-38" value="BIBLIOTECA" style="rounded=0;whiteSpace=wrap;html=1;fillColor=#dae8fc;strokeColor=#6c8ebf;" parent="1" vertex="1">
          <mxGeometry x="160" y="2112" width="120" height="60" as="geometry" />
        </mxCell>
        <mxCell id="VDzh7EiB1U5KI5voId9q-39" value="LIBRO" style="rounded=0;whiteSpace=wrap;html=1;fillColor=#dae8fc;strokeColor=#6c8ebf;" parent="1" vertex="1">
          <mxGeometry x="460" y="2112" width="120" height="60" as="geometry" />
        </mxCell>
        <mxCell id="VDzh7EiB1U5KI5voId9q-41" style="edgeStyle=orthogonalEdgeStyle;rounded=0;orthogonalLoop=1;jettySize=auto;html=1;entryX=0;entryY=0.5;entryDx=0;entryDy=0;endArrow=none;endFill=0;" parent="1" source="VDzh7EiB1U5KI5voId9q-40" target="VDzh7EiB1U5KI5voId9q-39" edge="1">
          <mxGeometry relative="1" as="geometry" />
        </mxCell>
        <mxCell id="VDzh7EiB1U5KI5voId9q-42" style="edgeStyle=orthogonalEdgeStyle;rounded=0;orthogonalLoop=1;jettySize=auto;html=1;entryX=1;entryY=0.5;entryDx=0;entryDy=0;endArrow=none;endFill=0;" parent="1" source="VDzh7EiB1U5KI5voId9q-40" target="VDzh7EiB1U5KI5voId9q-38" edge="1">
          <mxGeometry relative="1" as="geometry" />
        </mxCell>
        <mxCell id="VDzh7EiB1U5KI5voId9q-40" value="tiene" style="rhombus;whiteSpace=wrap;html=1;fillColor=#d5e8d4;strokeColor=#82b366;" parent="1" vertex="1">
          <mxGeometry x="330" y="2102" width="80" height="80" as="geometry" />
        </mxCell>
        <mxCell id="VDzh7EiB1U5KI5voId9q-43" value="1:N" style="text;html=1;align=center;verticalAlign=middle;resizable=0;points=[];autosize=1;strokeColor=none;fillColor=none;" parent="1" vertex="1">
          <mxGeometry x="415" y="2112" width="40" height="30" as="geometry" />
        </mxCell>
        <mxCell id="VDzh7EiB1U5KI5voId9q-44" value="0:1" style="text;html=1;align=center;verticalAlign=middle;resizable=0;points=[];autosize=1;strokeColor=none;fillColor=none;" parent="1" vertex="1">
          <mxGeometry x="285" y="2112" width="40" height="30" as="geometry" />
        </mxCell>
        <mxCell id="VDzh7EiB1U5KI5voId9q-45" value="1:N" style="text;html=1;align=center;verticalAlign=middle;resizable=0;points=[];autosize=1;strokeColor=none;fillColor=none;" parent="1" vertex="1">
          <mxGeometry x="350" y="2082" width="40" height="30" as="geometry" />
        </mxCell>
        <mxCell id="VDzh7EiB1U5KI5voId9q-46" value="LIBRO" style="rounded=0;whiteSpace=wrap;html=1;fillColor=#dae8fc;strokeColor=#6c8ebf;" parent="1" vertex="1">
          <mxGeometry x="160" y="2254" width="120" height="60" as="geometry" />
        </mxCell>
        <mxCell id="VDzh7EiB1U5KI5voId9q-49" value="GÉNERO" style="rounded=0;whiteSpace=wrap;html=1;fillColor=#dae8fc;strokeColor=#6c8ebf;" parent="1" vertex="1">
          <mxGeometry x="460" y="2254" width="120" height="60" as="geometry" />
        </mxCell>
        <mxCell id="VDzh7EiB1U5KI5voId9q-51" style="edgeStyle=orthogonalEdgeStyle;rounded=0;orthogonalLoop=1;jettySize=auto;html=1;entryX=0;entryY=0.5;entryDx=0;entryDy=0;endArrow=none;endFill=0;" parent="1" source="VDzh7EiB1U5KI5voId9q-50" target="VDzh7EiB1U5KI5voId9q-49" edge="1">
          <mxGeometry relative="1" as="geometry" />
        </mxCell>
        <mxCell id="VDzh7EiB1U5KI5voId9q-52" style="edgeStyle=orthogonalEdgeStyle;rounded=0;orthogonalLoop=1;jettySize=auto;html=1;entryX=1;entryY=0.5;entryDx=0;entryDy=0;endArrow=none;endFill=0;" parent="1" source="VDzh7EiB1U5KI5voId9q-50" target="VDzh7EiB1U5KI5voId9q-46" edge="1">
          <mxGeometry relative="1" as="geometry" />
        </mxCell>
        <mxCell id="VDzh7EiB1U5KI5voId9q-50" value="tiene" style="rhombus;whiteSpace=wrap;html=1;fillColor=#d5e8d4;strokeColor=#82b366;" parent="1" vertex="1">
          <mxGeometry x="330" y="2244" width="80" height="80" as="geometry" />
        </mxCell>
        <mxCell id="VDzh7EiB1U5KI5voId9q-53" value="1:N" style="text;html=1;align=center;verticalAlign=middle;resizable=0;points=[];autosize=1;strokeColor=none;fillColor=none;" parent="1" vertex="1">
          <mxGeometry x="415" y="2254" width="40" height="30" as="geometry" />
        </mxCell>
        <mxCell id="VDzh7EiB1U5KI5voId9q-54" value="1:N" style="text;html=1;align=center;verticalAlign=middle;resizable=0;points=[];autosize=1;strokeColor=none;fillColor=none;" parent="1" vertex="1">
          <mxGeometry x="285" y="2254" width="40" height="30" as="geometry" />
        </mxCell>
        <mxCell id="VDzh7EiB1U5KI5voId9q-55" value="N:M" style="text;html=1;align=center;verticalAlign=middle;resizable=0;points=[];autosize=1;strokeColor=none;fillColor=none;" parent="1" vertex="1">
          <mxGeometry x="345" y="2222" width="50" height="30" as="geometry" />
        </mxCell>
        <mxCell id="VDzh7EiB1U5KI5voId9q-56" value="EMPLEADOS ADMINISTRATIVOS" style="rounded=0;whiteSpace=wrap;html=1;fillColor=#dae8fc;strokeColor=#6c8ebf;" parent="1" vertex="1">
          <mxGeometry x="150" y="2412" width="120" height="60" as="geometry" />
        </mxCell>
        <mxCell id="VDzh7EiB1U5KI5voId9q-57" value="DEPARTAMENTO" style="rounded=0;whiteSpace=wrap;html=1;fillColor=#dae8fc;strokeColor=#6c8ebf;" parent="1" vertex="1">
          <mxGeometry x="450" y="2412" width="120" height="60" as="geometry" />
        </mxCell>
        <mxCell id="VDzh7EiB1U5KI5voId9q-58" style="edgeStyle=orthogonalEdgeStyle;rounded=0;orthogonalLoop=1;jettySize=auto;html=1;entryX=0;entryY=0.5;entryDx=0;entryDy=0;endArrow=none;endFill=0;" parent="1" source="VDzh7EiB1U5KI5voId9q-60" target="VDzh7EiB1U5KI5voId9q-57" edge="1">
          <mxGeometry relative="1" as="geometry" />
        </mxCell>
        <mxCell id="VDzh7EiB1U5KI5voId9q-59" style="edgeStyle=orthogonalEdgeStyle;rounded=0;orthogonalLoop=1;jettySize=auto;html=1;entryX=1;entryY=0.5;entryDx=0;entryDy=0;endArrow=none;endFill=0;" parent="1" source="VDzh7EiB1U5KI5voId9q-60" target="VDzh7EiB1U5KI5voId9q-56" edge="1">
          <mxGeometry relative="1" as="geometry" />
        </mxCell>
        <mxCell id="VDzh7EiB1U5KI5voId9q-60" value="tiene" style="rhombus;whiteSpace=wrap;html=1;fillColor=#d5e8d4;strokeColor=#82b366;" parent="1" vertex="1">
          <mxGeometry x="320" y="2402" width="80" height="80" as="geometry" />
        </mxCell>
        <mxCell id="VDzh7EiB1U5KI5voId9q-61" value="1:1" style="text;html=1;align=center;verticalAlign=middle;resizable=0;points=[];autosize=1;strokeColor=none;fillColor=none;" parent="1" vertex="1">
          <mxGeometry x="405" y="2412" width="40" height="30" as="geometry" />
        </mxCell>
        <mxCell id="VDzh7EiB1U5KI5voId9q-62" value="1:N" style="text;html=1;align=center;verticalAlign=middle;resizable=0;points=[];autosize=1;strokeColor=none;fillColor=none;" parent="1" vertex="1">
          <mxGeometry x="275" y="2412" width="40" height="30" as="geometry" />
        </mxCell>
        <mxCell id="VDzh7EiB1U5KI5voId9q-63" value="1:N" style="text;html=1;align=center;verticalAlign=middle;resizable=0;points=[];autosize=1;strokeColor=none;fillColor=none;" parent="1" vertex="1">
          <mxGeometry x="340" y="2380" width="40" height="30" as="geometry" />
        </mxCell>
        <mxCell id="VDzh7EiB1U5KI5voId9q-66" value="INSTALACIONES DEPORTIVAS" style="rounded=0;whiteSpace=wrap;html=1;fillColor=#dae8fc;strokeColor=#6c8ebf;" parent="1" vertex="1">
          <mxGeometry x="450" y="2563" width="120" height="60" as="geometry" />
        </mxCell>
        <mxCell id="VDzh7EiB1U5KI5voId9q-67" value="EVENTO" style="rounded=0;whiteSpace=wrap;html=1;fillColor=#dae8fc;strokeColor=#6c8ebf;" parent="1" vertex="1">
          <mxGeometry x="150" y="2563" width="120" height="60" as="geometry" />
        </mxCell>
        <mxCell id="VDzh7EiB1U5KI5voId9q-69" style="edgeStyle=orthogonalEdgeStyle;rounded=0;orthogonalLoop=1;jettySize=auto;html=1;entryX=0;entryY=0.5;entryDx=0;entryDy=0;endArrow=none;endFill=0;" parent="1" source="VDzh7EiB1U5KI5voId9q-68" target="VDzh7EiB1U5KI5voId9q-66" edge="1">
          <mxGeometry relative="1" as="geometry" />
        </mxCell>
        <mxCell id="VDzh7EiB1U5KI5voId9q-70" style="edgeStyle=orthogonalEdgeStyle;rounded=0;orthogonalLoop=1;jettySize=auto;html=1;entryX=1;entryY=0.5;entryDx=0;entryDy=0;endArrow=none;endFill=0;" parent="1" source="VDzh7EiB1U5KI5voId9q-68" target="VDzh7EiB1U5KI5voId9q-67" edge="1">
          <mxGeometry relative="1" as="geometry" />
        </mxCell>
        <mxCell id="VDzh7EiB1U5KI5voId9q-68" value="utiliza" style="rhombus;whiteSpace=wrap;html=1;fillColor=#d5e8d4;strokeColor=#82b366;" parent="1" vertex="1">
          <mxGeometry x="320" y="2553" width="80" height="80" as="geometry" />
        </mxCell>
        <mxCell id="VDzh7EiB1U5KI5voId9q-71" value="1:N" style="text;html=1;align=center;verticalAlign=middle;resizable=0;points=[];autosize=1;strokeColor=none;fillColor=none;" parent="1" vertex="1">
          <mxGeometry x="270" y="2563" width="40" height="30" as="geometry" />
        </mxCell>
        <mxCell id="VDzh7EiB1U5KI5voId9q-72" value="1:N" style="text;html=1;align=center;verticalAlign=middle;resizable=0;points=[];autosize=1;strokeColor=none;fillColor=none;" parent="1" vertex="1">
          <mxGeometry x="405" y="2563" width="40" height="30" as="geometry" />
        </mxCell>
        <mxCell id="VDzh7EiB1U5KI5voId9q-73" value="N:M" style="text;html=1;align=center;verticalAlign=middle;resizable=0;points=[];autosize=1;strokeColor=none;fillColor=none;" parent="1" vertex="1">
          <mxGeometry x="335" y="2533" width="50" height="30" as="geometry" />
        </mxCell>
        <mxCell id="VDzh7EiB1U5KI5voId9q-74" value="BECA" style="rounded=0;whiteSpace=wrap;html=1;fillColor=#dae8fc;strokeColor=#6c8ebf;" parent="1" vertex="1">
          <mxGeometry x="150" y="2732" width="120" height="60" as="geometry" />
        </mxCell>
        <mxCell id="VDzh7EiB1U5KI5voId9q-75" value="EMPRESA ASOCIADA" style="rounded=0;whiteSpace=wrap;html=1;fillColor=#dae8fc;strokeColor=#6c8ebf;" parent="1" vertex="1">
          <mxGeometry x="450" y="2732" width="120" height="60" as="geometry" />
        </mxCell>
        <mxCell id="VDzh7EiB1U5KI5voId9q-77" style="edgeStyle=orthogonalEdgeStyle;rounded=0;orthogonalLoop=1;jettySize=auto;html=1;entryX=1;entryY=0.5;entryDx=0;entryDy=0;endArrow=none;endFill=0;" parent="1" source="VDzh7EiB1U5KI5voId9q-76" target="VDzh7EiB1U5KI5voId9q-74" edge="1">
          <mxGeometry relative="1" as="geometry" />
        </mxCell>
        <mxCell id="VDzh7EiB1U5KI5voId9q-78" style="edgeStyle=orthogonalEdgeStyle;rounded=0;orthogonalLoop=1;jettySize=auto;html=1;entryX=0;entryY=0.5;entryDx=0;entryDy=0;endArrow=none;endFill=0;" parent="1" source="VDzh7EiB1U5KI5voId9q-76" target="VDzh7EiB1U5KI5voId9q-75" edge="1">
          <mxGeometry relative="1" as="geometry" />
        </mxCell>
        <mxCell id="VDzh7EiB1U5KI5voId9q-76" value="proporciona" style="rhombus;whiteSpace=wrap;html=1;fillColor=#d5e8d4;strokeColor=#82b366;" parent="1" vertex="1">
          <mxGeometry x="320" y="2722" width="80" height="80" as="geometry" />
        </mxCell>
        <mxCell id="VDzh7EiB1U5KI5voId9q-79" value="0:N" style="text;html=1;align=center;verticalAlign=middle;resizable=0;points=[];autosize=1;strokeColor=none;fillColor=none;" parent="1" vertex="1">
          <mxGeometry x="275" y="2732" width="40" height="30" as="geometry" />
        </mxCell>
        <mxCell id="VDzh7EiB1U5KI5voId9q-80" value="1:N" style="text;html=1;align=center;verticalAlign=middle;resizable=0;points=[];autosize=1;strokeColor=none;fillColor=none;" parent="1" vertex="1">
          <mxGeometry x="405" y="2732" width="40" height="30" as="geometry" />
        </mxCell>
        <mxCell id="VDzh7EiB1U5KI5voId9q-81" value="N:M" style="text;html=1;align=center;verticalAlign=middle;resizable=0;points=[];autosize=1;strokeColor=none;fillColor=none;" parent="1" vertex="1">
          <mxGeometry x="335" y="2702" width="50" height="30" as="geometry" />
        </mxCell>
        <mxCell id="VDzh7EiB1U5KI5voId9q-85" style="edgeStyle=orthogonalEdgeStyle;rounded=0;orthogonalLoop=1;jettySize=auto;html=1;entryX=0.5;entryY=0;entryDx=0;entryDy=0;endArrow=none;endFill=0;" parent="1" source="VDzh7EiB1U5KI5voId9q-82" target="yPODJ5ue4MWIPqrNUil7-1" edge="1">
          <mxGeometry relative="1" as="geometry" />
        </mxCell>
        <mxCell id="VDzh7EiB1U5KI5voId9q-82" value="dni" style="ellipse;whiteSpace=wrap;html=1;align=center;fontStyle=4;fillColor=#e1d5e7;strokeColor=#9673a6;" parent="1" vertex="1">
          <mxGeometry x="190" y="30" width="100" height="40" as="geometry" />
        </mxCell>
        <mxCell id="VDzh7EiB1U5KI5voId9q-83" style="edgeStyle=orthogonalEdgeStyle;rounded=0;orthogonalLoop=1;jettySize=auto;html=1;exitX=0.5;exitY=0;exitDx=0;exitDy=0;endArrow=none;endFill=0;" parent="1" source="VDzh7EiB1U5KI5voId9q-84" edge="1">
          <mxGeometry relative="1" as="geometry">
            <mxPoint x="240" y="170" as="targetPoint" />
          </mxGeometry>
        </mxCell>
        <mxCell id="VDzh7EiB1U5KI5voId9q-84" value="nombre" style="ellipse;whiteSpace=wrap;html=1;align=center;fillColor=#fff2cc;strokeColor=#d6b656;" parent="1" vertex="1">
          <mxGeometry x="182.5" y="200" width="100" height="40" as="geometry" />
        </mxCell>
        <mxCell id="VDzh7EiB1U5KI5voId9q-87" style="edgeStyle=orthogonalEdgeStyle;rounded=0;orthogonalLoop=1;jettySize=auto;html=1;entryX=0;entryY=0.5;entryDx=0;entryDy=0;endArrow=none;endFill=0;" parent="1" source="VDzh7EiB1U5KI5voId9q-86" target="yPODJ5ue4MWIPqrNUil7-1" edge="1">
          <mxGeometry relative="1" as="geometry" />
        </mxCell>
        <mxCell id="VDzh7EiB1U5KI5voId9q-86" value="apellidos" style="ellipse;whiteSpace=wrap;html=1;align=center;fillColor=#fff2cc;strokeColor=#d6b656;" parent="1" vertex="1">
          <mxGeometry x="40" y="120" width="100" height="40" as="geometry" />
        </mxCell>
        <mxCell id="VDzh7EiB1U5KI5voId9q-109" value="id_profesor" style="ellipse;whiteSpace=wrap;html=1;align=center;fontStyle=4;fillColor=#e1d5e7;strokeColor=#9673a6;" parent="1" vertex="1">
          <mxGeometry x="195" y="340" width="100" height="40" as="geometry" />
        </mxCell>
        <mxCell id="VDzh7EiB1U5KI5voId9q-117" style="edgeStyle=orthogonalEdgeStyle;rounded=0;orthogonalLoop=1;jettySize=auto;html=1;entryX=0.5;entryY=1;entryDx=0;entryDy=0;endArrow=none;endFill=0;" parent="1" source="VDzh7EiB1U5KI5voId9q-114" target="yPODJ5ue4MWIPqrNUil7-18" edge="1">
          <mxGeometry relative="1" as="geometry" />
        </mxCell>
        <mxCell id="VDzh7EiB1U5KI5voId9q-114" value="nombre" style="ellipse;whiteSpace=wrap;html=1;align=center;fillColor=#fff2cc;strokeColor=#d6b656;" parent="1" vertex="1">
          <mxGeometry x="195" y="510" width="100" height="40" as="geometry" />
        </mxCell>
        <mxCell id="VDzh7EiB1U5KI5voId9q-116" style="edgeStyle=orthogonalEdgeStyle;rounded=0;orthogonalLoop=1;jettySize=auto;html=1;entryX=0;entryY=0.5;entryDx=0;entryDy=0;endArrow=none;endFill=0;exitX=1;exitY=0.5;exitDx=0;exitDy=0;" parent="1" source="VDzh7EiB1U5KI5voId9q-115" target="yPODJ5ue4MWIPqrNUil7-18" edge="1">
          <mxGeometry relative="1" as="geometry">
            <Array as="points">
              <mxPoint x="150" y="452" />
              <mxPoint x="150" y="452" />
            </Array>
          </mxGeometry>
        </mxCell>
        <mxCell id="VDzh7EiB1U5KI5voId9q-115" value="apellidos" style="ellipse;whiteSpace=wrap;html=1;align=center;fillColor=#fff2cc;strokeColor=#d6b656;" parent="1" vertex="1">
          <mxGeometry x="25" y="432" width="100" height="40" as="geometry" />
        </mxCell>
        <mxCell id="VDzh7EiB1U5KI5voId9q-118" value="ID" style="ellipse;whiteSpace=wrap;html=1;align=center;fontStyle=4;fillColor=#e1d5e7;strokeColor=#9673a6;" parent="1" vertex="1">
          <mxGeometry x="490" y="50" width="100" height="40" as="geometry" />
        </mxCell>
        <mxCell id="VDzh7EiB1U5KI5voId9q-120" style="edgeStyle=orthogonalEdgeStyle;rounded=0;orthogonalLoop=1;jettySize=auto;html=1;entryX=0.5;entryY=1;entryDx=0;entryDy=0;endArrow=none;endFill=0;" parent="1" target="VDzh7EiB1U5KI5voId9q-121" edge="1">
          <mxGeometry relative="1" as="geometry">
            <mxPoint x="545" y="260" as="sourcePoint" />
          </mxGeometry>
        </mxCell>
        <mxCell id="VDzh7EiB1U5KI5voId9q-121" value="ID" style="ellipse;whiteSpace=wrap;html=1;align=center;fontStyle=4;fillColor=#e1d5e7;strokeColor=#9673a6;" parent="1" vertex="1">
          <mxGeometry x="495" y="190" width="100" height="40" as="geometry" />
        </mxCell>
        <mxCell id="VDzh7EiB1U5KI5voId9q-124" style="edgeStyle=orthogonalEdgeStyle;rounded=0;orthogonalLoop=1;jettySize=auto;html=1;entryX=0.5;entryY=0;entryDx=0;entryDy=0;endArrow=none;endFill=0;" parent="1" source="VDzh7EiB1U5KI5voId9q-123" target="yPODJ5ue4MWIPqrNUil7-19" edge="1">
          <mxGeometry relative="1" as="geometry" />
        </mxCell>
        <mxCell id="VDzh7EiB1U5KI5voId9q-123" value="ID" style="ellipse;whiteSpace=wrap;html=1;align=center;fontStyle=4;fillColor=#e1d5e7;strokeColor=#9673a6;" parent="1" vertex="1">
          <mxGeometry x="495" y="348" width="100" height="40" as="geometry" />
        </mxCell>
        <mxCell id="VDzh7EiB1U5KI5voId9q-125" style="edgeStyle=orthogonalEdgeStyle;rounded=0;orthogonalLoop=1;jettySize=auto;html=1;entryX=0.5;entryY=0;entryDx=0;entryDy=0;endArrow=none;endFill=0;" parent="1" source="VDzh7EiB1U5KI5voId9q-126" target="yPODJ5ue4MWIPqrNUil7-27" edge="1">
          <mxGeometry relative="1" as="geometry">
            <mxPoint x="545" y="658" as="targetPoint" />
          </mxGeometry>
        </mxCell>
        <mxCell id="VDzh7EiB1U5KI5voId9q-126" value="ID" style="ellipse;whiteSpace=wrap;html=1;align=center;fontStyle=4;fillColor=#e1d5e7;strokeColor=#9673a6;" parent="1" vertex="1">
          <mxGeometry x="495" y="584" width="100" height="40" as="geometry" />
        </mxCell>
        <mxCell id="VDzh7EiB1U5KI5voId9q-127" style="edgeStyle=orthogonalEdgeStyle;rounded=0;orthogonalLoop=1;jettySize=auto;html=1;entryX=0.5;entryY=0;entryDx=0;entryDy=0;endArrow=none;endFill=0;" parent="1" source="VDzh7EiB1U5KI5voId9q-128" target="yPODJ5ue4MWIPqrNUil7-52" edge="1">
          <mxGeometry relative="1" as="geometry">
            <mxPoint x="525" y="802" as="targetPoint" />
          </mxGeometry>
        </mxCell>
        <mxCell id="VDzh7EiB1U5KI5voId9q-128" value="ID" style="ellipse;whiteSpace=wrap;html=1;align=center;fontStyle=4;fillColor=#e1d5e7;strokeColor=#9673a6;" parent="1" vertex="1">
          <mxGeometry x="475" y="730" width="100" height="40" as="geometry" />
        </mxCell>
        <mxCell id="VDzh7EiB1U5KI5voId9q-131" style="edgeStyle=orthogonalEdgeStyle;rounded=0;orthogonalLoop=1;jettySize=auto;html=1;entryX=0.5;entryY=0;entryDx=0;entryDy=0;endArrow=none;endFill=0;" parent="1" source="VDzh7EiB1U5KI5voId9q-132" edge="1">
          <mxGeometry relative="1" as="geometry">
            <mxPoint x="527.5" y="1118" as="targetPoint" />
          </mxGeometry>
        </mxCell>
        <mxCell id="VDzh7EiB1U5KI5voId9q-132" value="ID" style="ellipse;whiteSpace=wrap;html=1;align=center;fontStyle=4;fillColor=#e1d5e7;strokeColor=#9673a6;" parent="1" vertex="1">
          <mxGeometry x="477.5" y="1046" width="100" height="40" as="geometry" />
        </mxCell>
        <mxCell id="VDzh7EiB1U5KI5voId9q-133" style="edgeStyle=orthogonalEdgeStyle;rounded=0;orthogonalLoop=1;jettySize=auto;html=1;entryX=0.5;entryY=0;entryDx=0;entryDy=0;endArrow=none;endFill=0;" parent="1" source="VDzh7EiB1U5KI5voId9q-134" edge="1">
          <mxGeometry relative="1" as="geometry">
            <mxPoint x="522.5" y="1340" as="targetPoint" />
          </mxGeometry>
        </mxCell>
        <mxCell id="VDzh7EiB1U5KI5voId9q-134" value="ID" style="ellipse;whiteSpace=wrap;html=1;align=center;fontStyle=4;fillColor=#e1d5e7;strokeColor=#9673a6;" parent="1" vertex="1">
          <mxGeometry x="472.5" y="1268" width="100" height="40" as="geometry" />
        </mxCell>
        <mxCell id="VDzh7EiB1U5KI5voId9q-135" style="edgeStyle=orthogonalEdgeStyle;rounded=0;orthogonalLoop=1;jettySize=auto;html=1;entryX=0.5;entryY=0;entryDx=0;entryDy=0;endArrow=none;endFill=0;" parent="1" source="VDzh7EiB1U5KI5voId9q-136" edge="1">
          <mxGeometry relative="1" as="geometry">
            <mxPoint x="522.5" y="1520" as="targetPoint" />
          </mxGeometry>
        </mxCell>
        <mxCell id="VDzh7EiB1U5KI5voId9q-136" value="ID" style="ellipse;whiteSpace=wrap;html=1;align=center;fontStyle=4;fillColor=#e1d5e7;strokeColor=#9673a6;" parent="1" vertex="1">
          <mxGeometry x="472.5" y="1448" width="100" height="40" as="geometry" />
        </mxCell>
        <mxCell id="VDzh7EiB1U5KI5voId9q-137" style="edgeStyle=orthogonalEdgeStyle;rounded=0;orthogonalLoop=1;jettySize=auto;html=1;entryX=0.5;entryY=0;entryDx=0;entryDy=0;endArrow=none;endFill=0;" parent="1" source="VDzh7EiB1U5KI5voId9q-138" edge="1">
          <mxGeometry relative="1" as="geometry">
            <mxPoint x="522.5" y="1722" as="targetPoint" />
          </mxGeometry>
        </mxCell>
        <mxCell id="VDzh7EiB1U5KI5voId9q-138" value="ID" style="ellipse;whiteSpace=wrap;html=1;align=center;fontStyle=4;fillColor=#e1d5e7;strokeColor=#9673a6;" parent="1" vertex="1">
          <mxGeometry x="472.5" y="1650" width="100" height="40" as="geometry" />
        </mxCell>
        <mxCell id="VDzh7EiB1U5KI5voId9q-139" style="edgeStyle=orthogonalEdgeStyle;rounded=0;orthogonalLoop=1;jettySize=auto;html=1;entryX=0.5;entryY=0;entryDx=0;entryDy=0;endArrow=none;endFill=0;" parent="1" source="VDzh7EiB1U5KI5voId9q-140" edge="1">
          <mxGeometry relative="1" as="geometry">
            <mxPoint x="520" y="1890" as="targetPoint" />
          </mxGeometry>
        </mxCell>
        <mxCell id="VDzh7EiB1U5KI5voId9q-140" value="ID" style="ellipse;whiteSpace=wrap;html=1;align=center;fontStyle=4;fillColor=#e1d5e7;strokeColor=#9673a6;" parent="1" vertex="1">
          <mxGeometry x="470" y="1818" width="100" height="40" as="geometry" />
        </mxCell>
        <mxCell id="VDzh7EiB1U5KI5voId9q-141" style="edgeStyle=orthogonalEdgeStyle;rounded=0;orthogonalLoop=1;jettySize=auto;html=1;entryX=0.5;entryY=0;entryDx=0;entryDy=0;endArrow=none;endFill=0;" parent="1" source="VDzh7EiB1U5KI5voId9q-142" edge="1">
          <mxGeometry relative="1" as="geometry">
            <mxPoint x="520" y="2112" as="targetPoint" />
          </mxGeometry>
        </mxCell>
        <mxCell id="VDzh7EiB1U5KI5voId9q-142" value="ID" style="ellipse;whiteSpace=wrap;html=1;align=center;fontStyle=4;fillColor=#e1d5e7;strokeColor=#9673a6;" parent="1" vertex="1">
          <mxGeometry x="470" y="2040" width="100" height="40" as="geometry" />
        </mxCell>
        <mxCell id="VDzh7EiB1U5KI5voId9q-143" style="edgeStyle=orthogonalEdgeStyle;rounded=0;orthogonalLoop=1;jettySize=auto;html=1;entryX=0.5;entryY=0;entryDx=0;entryDy=0;endArrow=none;endFill=0;" parent="1" source="VDzh7EiB1U5KI5voId9q-144" edge="1">
          <mxGeometry relative="1" as="geometry">
            <mxPoint x="520" y="2254" as="targetPoint" />
          </mxGeometry>
        </mxCell>
        <mxCell id="VDzh7EiB1U5KI5voId9q-144" value="ID" style="ellipse;whiteSpace=wrap;html=1;align=center;fontStyle=4;fillColor=#e1d5e7;strokeColor=#9673a6;" parent="1" vertex="1">
          <mxGeometry x="470" y="2182" width="100" height="40" as="geometry" />
        </mxCell>
        <mxCell id="VDzh7EiB1U5KI5voId9q-145" style="edgeStyle=orthogonalEdgeStyle;rounded=0;orthogonalLoop=1;jettySize=auto;html=1;entryX=0.5;entryY=0;entryDx=0;entryDy=0;endArrow=none;endFill=0;" parent="1" source="VDzh7EiB1U5KI5voId9q-146" edge="1">
          <mxGeometry relative="1" as="geometry">
            <mxPoint x="215" y="2254" as="targetPoint" />
          </mxGeometry>
        </mxCell>
        <mxCell id="VDzh7EiB1U5KI5voId9q-146" value="ID" style="ellipse;whiteSpace=wrap;html=1;align=center;fontStyle=4;fillColor=#e1d5e7;strokeColor=#9673a6;" parent="1" vertex="1">
          <mxGeometry x="165" y="2182" width="100" height="40" as="geometry" />
        </mxCell>
        <mxCell id="VDzh7EiB1U5KI5voId9q-147" style="edgeStyle=orthogonalEdgeStyle;rounded=0;orthogonalLoop=1;jettySize=auto;html=1;entryX=0.5;entryY=0;entryDx=0;entryDy=0;endArrow=none;endFill=0;" parent="1" source="VDzh7EiB1U5KI5voId9q-148" edge="1">
          <mxGeometry relative="1" as="geometry">
            <mxPoint x="215" y="2112" as="targetPoint" />
          </mxGeometry>
        </mxCell>
        <mxCell id="VDzh7EiB1U5KI5voId9q-148" value="ID" style="ellipse;whiteSpace=wrap;html=1;align=center;fontStyle=4;fillColor=#e1d5e7;strokeColor=#9673a6;" parent="1" vertex="1">
          <mxGeometry x="165" y="2040" width="100" height="40" as="geometry" />
        </mxCell>
        <mxCell id="VDzh7EiB1U5KI5voId9q-150" value="ID" style="ellipse;whiteSpace=wrap;html=1;align=center;fontStyle=4;fillColor=#e1d5e7;strokeColor=#9673a6;" parent="1" vertex="1">
          <mxGeometry x="172.5" y="1650" width="100" height="40" as="geometry" />
        </mxCell>
        <mxCell id="VDzh7EiB1U5KI5voId9q-154" style="edgeStyle=orthogonalEdgeStyle;rounded=0;orthogonalLoop=1;jettySize=auto;html=1;exitX=0.5;exitY=0;exitDx=0;exitDy=0;entryX=0.5;entryY=1;entryDx=0;entryDy=0;endArrow=none;endFill=0;" parent="1" source="VDzh7EiB1U5KI5voId9q-153" target="VDzh7EiB1U5KI5voId9q-3" edge="1">
          <mxGeometry relative="1" as="geometry" />
        </mxCell>
        <mxCell id="VDzh7EiB1U5KI5voId9q-153" value="ID" style="ellipse;whiteSpace=wrap;html=1;align=center;fontStyle=4;fillColor=#e1d5e7;strokeColor=#9673a6;" parent="1" vertex="1">
          <mxGeometry x="172.5" y="1600" width="100" height="40" as="geometry" />
        </mxCell>
        <mxCell id="VDzh7EiB1U5KI5voId9q-155" style="edgeStyle=orthogonalEdgeStyle;rounded=0;orthogonalLoop=1;jettySize=auto;html=1;entryX=0.5;entryY=0;entryDx=0;entryDy=0;endArrow=none;endFill=0;" parent="1" source="VDzh7EiB1U5KI5voId9q-156" edge="1">
          <mxGeometry relative="1" as="geometry">
            <mxPoint x="210" y="2412" as="targetPoint" />
          </mxGeometry>
        </mxCell>
        <mxCell id="VDzh7EiB1U5KI5voId9q-156" value="ID" style="ellipse;whiteSpace=wrap;html=1;align=center;fontStyle=4;fillColor=#e1d5e7;strokeColor=#9673a6;" parent="1" vertex="1">
          <mxGeometry x="160" y="2340" width="100" height="40" as="geometry" />
        </mxCell>
        <mxCell id="VDzh7EiB1U5KI5voId9q-157" style="edgeStyle=orthogonalEdgeStyle;rounded=0;orthogonalLoop=1;jettySize=auto;html=1;entryX=0.5;entryY=0;entryDx=0;entryDy=0;endArrow=none;endFill=0;" parent="1" source="VDzh7EiB1U5KI5voId9q-158" edge="1">
          <mxGeometry relative="1" as="geometry">
            <mxPoint x="512.5" y="2412" as="targetPoint" />
          </mxGeometry>
        </mxCell>
        <mxCell id="VDzh7EiB1U5KI5voId9q-158" value="ID" style="ellipse;whiteSpace=wrap;html=1;align=center;fontStyle=4;fillColor=#e1d5e7;strokeColor=#9673a6;" parent="1" vertex="1">
          <mxGeometry x="462.5" y="2340" width="100" height="40" as="geometry" />
        </mxCell>
        <mxCell id="VDzh7EiB1U5KI5voId9q-159" style="edgeStyle=orthogonalEdgeStyle;rounded=0;orthogonalLoop=1;jettySize=auto;html=1;entryX=0.5;entryY=0;entryDx=0;entryDy=0;endArrow=none;endFill=0;" parent="1" source="VDzh7EiB1U5KI5voId9q-160" edge="1">
          <mxGeometry relative="1" as="geometry">
            <mxPoint x="210" y="2563" as="targetPoint" />
          </mxGeometry>
        </mxCell>
        <mxCell id="VDzh7EiB1U5KI5voId9q-160" value="ID" style="ellipse;whiteSpace=wrap;html=1;align=center;fontStyle=4;fillColor=#e1d5e7;strokeColor=#9673a6;" parent="1" vertex="1">
          <mxGeometry x="160" y="2491" width="100" height="40" as="geometry" />
        </mxCell>
        <mxCell id="VDzh7EiB1U5KI5voId9q-161" style="edgeStyle=orthogonalEdgeStyle;rounded=0;orthogonalLoop=1;jettySize=auto;html=1;entryX=0.5;entryY=0;entryDx=0;entryDy=0;endArrow=none;endFill=0;" parent="1" source="VDzh7EiB1U5KI5voId9q-162" edge="1">
          <mxGeometry relative="1" as="geometry">
            <mxPoint x="507.5" y="2563" as="targetPoint" />
          </mxGeometry>
        </mxCell>
        <mxCell id="VDzh7EiB1U5KI5voId9q-162" value="ID" style="ellipse;whiteSpace=wrap;html=1;align=center;fontStyle=4;fillColor=#e1d5e7;strokeColor=#9673a6;" parent="1" vertex="1">
          <mxGeometry x="457.5" y="2491" width="100" height="40" as="geometry" />
        </mxCell>
        <mxCell id="VDzh7EiB1U5KI5voId9q-163" style="edgeStyle=orthogonalEdgeStyle;rounded=0;orthogonalLoop=1;jettySize=auto;html=1;entryX=0.5;entryY=0;entryDx=0;entryDy=0;endArrow=none;endFill=0;" parent="1" source="VDzh7EiB1U5KI5voId9q-164" edge="1">
          <mxGeometry relative="1" as="geometry">
            <mxPoint x="512.5" y="2732" as="targetPoint" />
          </mxGeometry>
        </mxCell>
        <mxCell id="VDzh7EiB1U5KI5voId9q-164" value="ID" style="ellipse;whiteSpace=wrap;html=1;align=center;fontStyle=4;fillColor=#e1d5e7;strokeColor=#9673a6;" parent="1" vertex="1">
          <mxGeometry x="462.5" y="2660" width="100" height="40" as="geometry" />
        </mxCell>
        <mxCell id="VDzh7EiB1U5KI5voId9q-165" style="edgeStyle=orthogonalEdgeStyle;rounded=0;orthogonalLoop=1;jettySize=auto;html=1;entryX=0.5;entryY=0;entryDx=0;entryDy=0;endArrow=none;endFill=0;" parent="1" source="VDzh7EiB1U5KI5voId9q-166" edge="1">
          <mxGeometry relative="1" as="geometry">
            <mxPoint x="210" y="2732" as="targetPoint" />
          </mxGeometry>
        </mxCell>
        <mxCell id="VDzh7EiB1U5KI5voId9q-166" value="ID" style="ellipse;whiteSpace=wrap;html=1;align=center;fontStyle=4;fillColor=#e1d5e7;strokeColor=#9673a6;" parent="1" vertex="1">
          <mxGeometry x="160" y="2660" width="100" height="40" as="geometry" />
        </mxCell>
        <mxCell id="VDzh7EiB1U5KI5voId9q-169" style="edgeStyle=orthogonalEdgeStyle;rounded=0;orthogonalLoop=1;jettySize=auto;html=1;entryX=0.5;entryY=0;entryDx=0;entryDy=0;endArrow=none;endFill=0;" parent="1" source="VDzh7EiB1U5KI5voId9q-170" edge="1">
          <mxGeometry relative="1" as="geometry">
            <mxPoint x="230" y="804" as="targetPoint" />
          </mxGeometry>
        </mxCell>
        <mxCell id="VDzh7EiB1U5KI5voId9q-170" value="ID" style="ellipse;whiteSpace=wrap;html=1;align=center;fontStyle=4;fillColor=#e1d5e7;strokeColor=#9673a6;" parent="1" vertex="1">
          <mxGeometry x="180" y="732" width="100" height="40" as="geometry" />
        </mxCell>
        <mxCell id="VDzh7EiB1U5KI5voId9q-171" style="edgeStyle=orthogonalEdgeStyle;rounded=0;orthogonalLoop=1;jettySize=auto;html=1;entryX=0.5;entryY=0;entryDx=0;entryDy=0;endArrow=none;endFill=0;" parent="1" source="VDzh7EiB1U5KI5voId9q-172" edge="1">
          <mxGeometry relative="1" as="geometry">
            <mxPoint x="245" y="656" as="targetPoint" />
          </mxGeometry>
        </mxCell>
        <mxCell id="VDzh7EiB1U5KI5voId9q-172" value="ID" style="ellipse;whiteSpace=wrap;html=1;align=center;fontStyle=4;fillColor=#e1d5e7;strokeColor=#9673a6;" parent="1" vertex="1">
          <mxGeometry x="195" y="584" width="100" height="40" as="geometry" />
        </mxCell>
        <mxCell id="VDzh7EiB1U5KI5voId9q-179" value="ESTUDIANTE" style="rounded=0;whiteSpace=wrap;html=1;fillColor=#dae8fc;strokeColor=#6c8ebf;" parent="1" vertex="1">
          <mxGeometry x="1330" y="810" width="120" height="60" as="geometry" />
        </mxCell>
        <mxCell id="VDzh7EiB1U5KI5voId9q-180" style="edgeStyle=orthogonalEdgeStyle;rounded=0;orthogonalLoop=1;jettySize=auto;html=1;entryX=0.5;entryY=1;entryDx=0;entryDy=0;endArrow=none;endFill=0;" parent="1" source="VDzh7EiB1U5KI5voId9q-181" target="VDzh7EiB1U5KI5voId9q-193" edge="1">
          <mxGeometry relative="1" as="geometry" />
        </mxCell>
        <mxCell id="-P3A0L3aGcsIy8J95jdL-46" style="edgeStyle=orthogonalEdgeStyle;rounded=0;orthogonalLoop=1;jettySize=auto;html=1;entryX=0;entryY=0.5;entryDx=0;entryDy=0;endArrow=none;endFill=0;" parent="1" source="VDzh7EiB1U5KI5voId9q-181" target="-P3A0L3aGcsIy8J95jdL-45" edge="1">
          <mxGeometry relative="1" as="geometry">
            <mxPoint x="1915" y="687" as="targetPoint" />
          </mxGeometry>
        </mxCell>
        <mxCell id="VDzh7EiB1U5KI5voId9q-181" value="PROGRAMA ACADÉMICO" style="rounded=0;whiteSpace=wrap;html=1;fillColor=#dae8fc;strokeColor=#6c8ebf;" parent="1" vertex="1">
          <mxGeometry x="1695" y="714" width="120" height="60" as="geometry" />
        </mxCell>
        <mxCell id="VDzh7EiB1U5KI5voId9q-182" value="" style="edgeStyle=orthogonalEdgeStyle;rounded=0;orthogonalLoop=1;jettySize=auto;html=1;endArrow=none;endFill=0;" parent="1" source="VDzh7EiB1U5KI5voId9q-183" target="VDzh7EiB1U5KI5voId9q-181" edge="1">
          <mxGeometry relative="1" as="geometry" />
        </mxCell>
        <mxCell id="HiYHxnQxUSVBelimSYCU-40" style="edgeStyle=orthogonalEdgeStyle;rounded=0;orthogonalLoop=1;jettySize=auto;html=1;exitX=0;exitY=1;exitDx=0;exitDy=0;entryX=1;entryY=0;entryDx=0;entryDy=0;endArrow=none;endFill=0;" parent="1" source="VDzh7EiB1U5KI5voId9q-183" target="VDzh7EiB1U5KI5voId9q-179" edge="1">
          <mxGeometry relative="1" as="geometry">
            <Array as="points">
              <mxPoint x="1545" y="810" />
            </Array>
          </mxGeometry>
        </mxCell>
        <mxCell id="VDzh7EiB1U5KI5voId9q-183" value="asociado" style="rhombus;whiteSpace=wrap;html=1;fillColor=#d5e8d4;strokeColor=#82b366;" parent="1" vertex="1">
          <mxGeometry x="1525" y="680" width="80" height="80" as="geometry" />
        </mxCell>
        <mxCell id="VDzh7EiB1U5KI5voId9q-184" value="1:1" style="text;html=1;strokeColor=none;fillColor=none;align=center;verticalAlign=middle;whiteSpace=wrap;rounded=0;" parent="1" vertex="1">
          <mxGeometry x="1635" y="702" width="60" height="30" as="geometry" />
        </mxCell>
        <mxCell id="VDzh7EiB1U5KI5voId9q-186" value="1:N" style="text;html=1;strokeColor=none;fillColor=none;align=center;verticalAlign=middle;whiteSpace=wrap;rounded=0;" parent="1" vertex="1">
          <mxGeometry x="1535" y="649" width="60" height="30" as="geometry" />
        </mxCell>
        <mxCell id="VDzh7EiB1U5KI5voId9q-265" style="edgeStyle=orthogonalEdgeStyle;rounded=0;orthogonalLoop=1;jettySize=auto;html=1;exitX=0.5;exitY=1;exitDx=0;exitDy=0;entryX=1;entryY=0;entryDx=0;entryDy=0;endArrow=none;endFill=0;" parent="1" source="VDzh7EiB1U5KI5voId9q-188" target="VDzh7EiB1U5KI5voId9q-179" edge="1">
          <mxGeometry relative="1" as="geometry">
            <Array as="points">
              <mxPoint x="1470" y="764" />
              <mxPoint x="1450" y="764" />
            </Array>
          </mxGeometry>
        </mxCell>
        <mxCell id="VDzh7EiB1U5KI5voId9q-188" value="dni" style="ellipse;whiteSpace=wrap;html=1;align=center;fontStyle=4;fillColor=#e1d5e7;strokeColor=#9673a6;" parent="1" vertex="1">
          <mxGeometry x="1420" y="710" width="100" height="40" as="geometry" />
        </mxCell>
        <mxCell id="VDzh7EiB1U5KI5voId9q-189" style="edgeStyle=orthogonalEdgeStyle;rounded=0;orthogonalLoop=1;jettySize=auto;html=1;exitX=0.5;exitY=0;exitDx=0;exitDy=0;endArrow=none;endFill=0;entryX=0.75;entryY=1;entryDx=0;entryDy=0;" parent="1" source="VDzh7EiB1U5KI5voId9q-190" target="VDzh7EiB1U5KI5voId9q-179" edge="1">
          <mxGeometry relative="1" as="geometry">
            <mxPoint x="1390" y="870" as="targetPoint" />
          </mxGeometry>
        </mxCell>
        <mxCell id="VDzh7EiB1U5KI5voId9q-190" value="nombre" style="ellipse;whiteSpace=wrap;html=1;align=center;fillColor=#fff2cc;strokeColor=#d6b656;" parent="1" vertex="1">
          <mxGeometry x="1370" y="902" width="100" height="40" as="geometry" />
        </mxCell>
        <mxCell id="VDzh7EiB1U5KI5voId9q-191" style="edgeStyle=orthogonalEdgeStyle;rounded=0;orthogonalLoop=1;jettySize=auto;html=1;entryX=0;entryY=0.75;entryDx=0;entryDy=0;endArrow=none;endFill=0;" parent="1" source="VDzh7EiB1U5KI5voId9q-192" target="VDzh7EiB1U5KI5voId9q-179" edge="1">
          <mxGeometry relative="1" as="geometry">
            <Array as="points">
              <mxPoint x="1270" y="904" />
              <mxPoint x="1270" y="850" />
              <mxPoint x="1330" y="850" />
            </Array>
          </mxGeometry>
        </mxCell>
        <mxCell id="VDzh7EiB1U5KI5voId9q-192" value="apellidos" style="ellipse;whiteSpace=wrap;html=1;align=center;fillColor=#fff2cc;strokeColor=#d6b656;" parent="1" vertex="1">
          <mxGeometry x="1155" y="884" width="100" height="40" as="geometry" />
        </mxCell>
        <mxCell id="VDzh7EiB1U5KI5voId9q-193" value="ID" style="ellipse;whiteSpace=wrap;html=1;align=center;fontStyle=4;fillColor=#e1d5e7;strokeColor=#9673a6;" parent="1" vertex="1">
          <mxGeometry x="1715" y="609" width="100" height="40" as="geometry" />
        </mxCell>
        <mxCell id="VDzh7EiB1U5KI5voId9q-230" value="1:N" style="text;html=1;strokeColor=none;fillColor=none;align=center;verticalAlign=middle;whiteSpace=wrap;rounded=0;" parent="1" vertex="1">
          <mxGeometry x="1780" y="1038" width="60" height="30" as="geometry" />
        </mxCell>
        <mxCell id="VDzh7EiB1U5KI5voId9q-231" value="1:N" style="text;html=1;strokeColor=none;fillColor=none;align=center;verticalAlign=middle;whiteSpace=wrap;rounded=0;" parent="1" vertex="1">
          <mxGeometry x="1430" y="872" width="60" height="30" as="geometry" />
        </mxCell>
        <mxCell id="VDzh7EiB1U5KI5voId9q-234" value="ID" style="ellipse;whiteSpace=wrap;html=1;align=center;fontStyle=4;fillColor=#e1d5e7;strokeColor=#9673a6;" parent="1" vertex="1">
          <mxGeometry x="1880" y="1050" width="100" height="40" as="geometry" />
        </mxCell>
        <mxCell id="VDzh7EiB1U5KI5voId9q-298" style="edgeStyle=orthogonalEdgeStyle;rounded=0;orthogonalLoop=1;jettySize=auto;html=1;entryX=0;entryY=0.5;entryDx=0;entryDy=0;endArrow=none;endFill=0;exitX=1;exitY=0.25;exitDx=0;exitDy=0;" parent="1" source="VDzh7EiB1U5KI5voId9q-235" target="VDzh7EiB1U5KI5voId9q-234" edge="1">
          <mxGeometry relative="1" as="geometry">
            <Array as="points">
              <mxPoint x="1820" y="1070" />
            </Array>
          </mxGeometry>
        </mxCell>
        <mxCell id="VDzh7EiB1U5KI5voId9q-301" style="edgeStyle=orthogonalEdgeStyle;rounded=0;orthogonalLoop=1;jettySize=auto;html=1;entryX=0.5;entryY=1;entryDx=0;entryDy=0;endArrow=none;endFill=0;exitX=0.75;exitY=0;exitDx=0;exitDy=0;" parent="1" source="VDzh7EiB1U5KI5voId9q-235" target="VDzh7EiB1U5KI5voId9q-279" edge="1">
          <mxGeometry relative="1" as="geometry" />
        </mxCell>
        <mxCell id="HiYHxnQxUSVBelimSYCU-5" value="" style="edgeStyle=orthogonalEdgeStyle;rounded=0;orthogonalLoop=1;jettySize=auto;html=1;entryX=0.5;entryY=1;entryDx=0;entryDy=0;endArrow=none;endFill=0;" parent="1" source="VDzh7EiB1U5KI5voId9q-235" target="HiYHxnQxUSVBelimSYCU-3" edge="1">
          <mxGeometry relative="1" as="geometry" />
        </mxCell>
        <mxCell id="VDzh7EiB1U5KI5voId9q-235" value="CURSO" style="rounded=0;whiteSpace=wrap;html=1;fillColor=#dae8fc;strokeColor=#6c8ebf;" parent="1" vertex="1">
          <mxGeometry x="1700" y="1082" width="120" height="60" as="geometry" />
        </mxCell>
        <mxCell id="VDzh7EiB1U5KI5voId9q-243" value="1:N" style="text;html=1;strokeColor=none;fillColor=none;align=center;verticalAlign=middle;whiteSpace=wrap;rounded=0;" parent="1" vertex="1">
          <mxGeometry x="1310" y="874" width="60" height="30" as="geometry" />
        </mxCell>
        <mxCell id="VDzh7EiB1U5KI5voId9q-244" value="1:N" style="text;html=1;strokeColor=none;fillColor=none;align=center;verticalAlign=middle;whiteSpace=wrap;rounded=0;" parent="1" vertex="1">
          <mxGeometry x="1360" y="1120" width="60" height="30" as="geometry" />
        </mxCell>
        <mxCell id="VDzh7EiB1U5KI5voId9q-245" value="N:M" style="text;html=1;strokeColor=none;fillColor=none;align=center;verticalAlign=middle;whiteSpace=wrap;rounded=0;" parent="1" vertex="1">
          <mxGeometry x="1270" y="1005" width="60" height="30" as="geometry" />
        </mxCell>
        <mxCell id="VDzh7EiB1U5KI5voId9q-304" style="edgeStyle=orthogonalEdgeStyle;rounded=0;orthogonalLoop=1;jettySize=auto;html=1;entryX=1;entryY=0.5;entryDx=0;entryDy=0;exitX=0;exitY=0.5;exitDx=0;exitDy=0;endArrow=none;endFill=0;" parent="1" source="VDzh7EiB1U5KI5voId9q-247" target="VDzh7EiB1U5KI5voId9q-252" edge="1">
          <mxGeometry relative="1" as="geometry" />
        </mxCell>
        <mxCell id="VDzh7EiB1U5KI5voId9q-247" value="Notas" style="ellipse;whiteSpace=wrap;html=1;align=center;fillColor=#fff2cc;strokeColor=#d6b656;" parent="1" vertex="1">
          <mxGeometry x="1410" y="1010" width="100" height="40" as="geometry" />
        </mxCell>
        <mxCell id="VDzh7EiB1U5KI5voId9q-291" style="edgeStyle=orthogonalEdgeStyle;rounded=0;orthogonalLoop=1;jettySize=auto;html=1;entryX=0.5;entryY=1;entryDx=0;entryDy=0;endArrow=none;endFill=0;" parent="1" source="VDzh7EiB1U5KI5voId9q-249" target="VDzh7EiB1U5KI5voId9q-250" edge="1">
          <mxGeometry relative="1" as="geometry">
            <Array as="points" />
          </mxGeometry>
        </mxCell>
        <mxCell id="VDzh7EiB1U5KI5voId9q-249" value="ID" style="ellipse;whiteSpace=wrap;html=1;align=center;fontStyle=4;fillColor=#e1d5e7;strokeColor=#9673a6;" parent="1" vertex="1">
          <mxGeometry x="1230" y="1310" width="100" height="40" as="geometry" />
        </mxCell>
        <mxCell id="VDzh7EiB1U5KI5voId9q-314" style="edgeStyle=orthogonalEdgeStyle;rounded=0;orthogonalLoop=1;jettySize=auto;html=1;exitX=1;exitY=0;exitDx=0;exitDy=0;entryX=1;entryY=0.5;entryDx=0;entryDy=0;endArrow=none;endFill=0;" parent="1" source="VDzh7EiB1U5KI5voId9q-250" target="VDzh7EiB1U5KI5voId9q-313" edge="1">
          <mxGeometry relative="1" as="geometry">
            <Array as="points">
              <mxPoint x="1340" y="1088" />
            </Array>
          </mxGeometry>
        </mxCell>
        <mxCell id="VDzh7EiB1U5KI5voId9q-339" style="edgeStyle=orthogonalEdgeStyle;rounded=0;orthogonalLoop=1;jettySize=auto;html=1;exitX=1;exitY=0.75;exitDx=0;exitDy=0;entryX=0;entryY=1;entryDx=0;entryDy=0;endArrow=none;endFill=0;" parent="1" source="VDzh7EiB1U5KI5voId9q-250" target="VDzh7EiB1U5KI5voId9q-337" edge="1">
          <mxGeometry relative="1" as="geometry">
            <Array as="points">
              <mxPoint x="1490" y="1205" />
            </Array>
          </mxGeometry>
        </mxCell>
        <mxCell id="VDzh7EiB1U5KI5voId9q-250" value="ASIGNATURA" style="rounded=0;whiteSpace=wrap;html=1;fillColor=#dae8fc;strokeColor=#6c8ebf;" parent="1" vertex="1">
          <mxGeometry x="1220" y="1160" width="120" height="60" as="geometry" />
        </mxCell>
        <mxCell id="VDzh7EiB1U5KI5voId9q-254" style="edgeStyle=orthogonalEdgeStyle;rounded=0;orthogonalLoop=1;jettySize=auto;html=1;entryX=1;entryY=0.5;entryDx=0;entryDy=0;endArrow=none;endFill=0;" parent="1" source="VDzh7EiB1U5KI5voId9q-252" target="VDzh7EiB1U5KI5voId9q-250" edge="1">
          <mxGeometry relative="1" as="geometry" />
        </mxCell>
        <mxCell id="VDzh7EiB1U5KI5voId9q-289" style="edgeStyle=orthogonalEdgeStyle;rounded=0;orthogonalLoop=1;jettySize=auto;html=1;entryX=0.25;entryY=1;entryDx=0;entryDy=0;endArrow=none;endFill=0;" parent="1" source="VDzh7EiB1U5KI5voId9q-252" target="VDzh7EiB1U5KI5voId9q-179" edge="1">
          <mxGeometry relative="1" as="geometry" />
        </mxCell>
        <mxCell id="VDzh7EiB1U5KI5voId9q-252" value="cursa" style="rhombus;whiteSpace=wrap;html=1;fillColor=#d5e8d4;strokeColor=#82b366;" parent="1" vertex="1">
          <mxGeometry x="1320" y="980" width="80" height="80" as="geometry" />
        </mxCell>
        <mxCell id="VDzh7EiB1U5KI5voId9q-260" value="0:N" style="text;html=1;align=center;verticalAlign=middle;resizable=0;points=[];autosize=1;strokeColor=none;fillColor=none;" parent="1" vertex="1">
          <mxGeometry x="1390" y="560" width="40" height="30" as="geometry" />
        </mxCell>
        <mxCell id="VDzh7EiB1U5KI5voId9q-261" value="1:N" style="text;html=1;align=center;verticalAlign=middle;resizable=0;points=[];autosize=1;strokeColor=none;fillColor=none;" parent="1" vertex="1">
          <mxGeometry x="1350" y="780" width="40" height="30" as="geometry" />
        </mxCell>
        <mxCell id="VDzh7EiB1U5KI5voId9q-262" value="N:M" style="text;html=1;align=center;verticalAlign=middle;resizable=0;points=[];autosize=1;strokeColor=none;fillColor=none;" parent="1" vertex="1">
          <mxGeometry x="1310" y="669" width="50" height="30" as="geometry" />
        </mxCell>
        <mxCell id="VDzh7EiB1U5KI5voId9q-270" style="edgeStyle=orthogonalEdgeStyle;rounded=0;orthogonalLoop=1;jettySize=auto;html=1;entryX=1;entryY=0.5;entryDx=0;entryDy=0;endArrow=none;endFill=0;" parent="1" source="VDzh7EiB1U5KI5voId9q-264" target="VDzh7EiB1U5KI5voId9q-266" edge="1">
          <mxGeometry relative="1" as="geometry" />
        </mxCell>
        <mxCell id="VDzh7EiB1U5KI5voId9q-264" value="ID" style="ellipse;whiteSpace=wrap;html=1;align=center;fontStyle=4;fillColor=#e1d5e7;strokeColor=#9673a6;" parent="1" vertex="1">
          <mxGeometry x="1510" y="510" width="100" height="40" as="geometry" />
        </mxCell>
        <mxCell id="VDzh7EiB1U5KI5voId9q-266" value="BECA" style="rounded=0;whiteSpace=wrap;html=1;fillColor=#dae8fc;strokeColor=#6c8ebf;" parent="1" vertex="1">
          <mxGeometry x="1330" y="500" width="120" height="60" as="geometry" />
        </mxCell>
        <mxCell id="VDzh7EiB1U5KI5voId9q-268" style="edgeStyle=orthogonalEdgeStyle;rounded=0;orthogonalLoop=1;jettySize=auto;html=1;entryX=0.5;entryY=1;entryDx=0;entryDy=0;endArrow=none;endFill=0;" parent="1" source="VDzh7EiB1U5KI5voId9q-267" target="VDzh7EiB1U5KI5voId9q-266" edge="1">
          <mxGeometry relative="1" as="geometry" />
        </mxCell>
        <mxCell id="VDzh7EiB1U5KI5voId9q-269" style="edgeStyle=orthogonalEdgeStyle;rounded=0;orthogonalLoop=1;jettySize=auto;html=1;entryX=0.5;entryY=0;entryDx=0;entryDy=0;endArrow=none;endFill=0;" parent="1" source="VDzh7EiB1U5KI5voId9q-267" target="VDzh7EiB1U5KI5voId9q-179" edge="1">
          <mxGeometry relative="1" as="geometry" />
        </mxCell>
        <mxCell id="VDzh7EiB1U5KI5voId9q-267" value="recibe" style="rhombus;whiteSpace=wrap;html=1;fillColor=#d5e8d4;strokeColor=#82b366;" parent="1" vertex="1">
          <mxGeometry x="1350" y="644" width="80" height="80" as="geometry" />
        </mxCell>
        <mxCell id="VDzh7EiB1U5KI5voId9q-272" value="ID" style="ellipse;whiteSpace=wrap;html=1;align=center;fontStyle=4;fillColor=#e1d5e7;strokeColor=#9673a6;" parent="1" vertex="1">
          <mxGeometry x="50" y="270" width="100" height="40" as="geometry" />
        </mxCell>
        <mxCell id="VDzh7EiB1U5KI5voId9q-300" style="edgeStyle=orthogonalEdgeStyle;rounded=0;orthogonalLoop=1;jettySize=auto;html=1;endArrow=none;endFill=0;entryX=1;entryY=1;entryDx=0;entryDy=0;exitX=0.5;exitY=0;exitDx=0;exitDy=0;" parent="1" source="VDzh7EiB1U5KI5voId9q-279" target="VDzh7EiB1U5KI5voId9q-181" edge="1">
          <mxGeometry relative="1" as="geometry">
            <mxPoint x="1690" y="870.0000000000002" as="targetPoint" />
            <Array as="points">
              <mxPoint x="1955" y="774" />
            </Array>
          </mxGeometry>
        </mxCell>
        <mxCell id="VDzh7EiB1U5KI5voId9q-279" value="pertenece" style="rhombus;whiteSpace=wrap;html=1;fillColor=#d5e8d4;strokeColor=#82b366;" parent="1" vertex="1">
          <mxGeometry x="1915" y="874" width="80" height="80" as="geometry" />
        </mxCell>
        <mxCell id="VDzh7EiB1U5KI5voId9q-280" value="1:1" style="text;html=1;strokeColor=none;fillColor=none;align=center;verticalAlign=middle;whiteSpace=wrap;rounded=0;" parent="1" vertex="1">
          <mxGeometry x="1860" y="770" width="60" height="30" as="geometry" />
        </mxCell>
        <mxCell id="VDzh7EiB1U5KI5voId9q-281" value="1:N" style="text;html=1;strokeColor=none;fillColor=none;align=center;verticalAlign=middle;whiteSpace=wrap;rounded=0;" parent="1" vertex="1">
          <mxGeometry x="1655" y="1052" width="60" height="30" as="geometry" />
        </mxCell>
        <mxCell id="VDzh7EiB1U5KI5voId9q-282" value="1:N" style="text;html=1;strokeColor=none;fillColor=none;align=center;verticalAlign=middle;whiteSpace=wrap;rounded=0;" parent="1" vertex="1">
          <mxGeometry x="1975" y="899" width="70" height="30" as="geometry" />
        </mxCell>
        <mxCell id="VDzh7EiB1U5KI5voId9q-302" style="edgeStyle=orthogonalEdgeStyle;rounded=0;orthogonalLoop=1;jettySize=auto;html=1;exitX=0;exitY=0;exitDx=0;exitDy=0;entryX=1;entryY=1;entryDx=0;entryDy=0;endArrow=none;endFill=0;" parent="1" source="VDzh7EiB1U5KI5voId9q-293" target="VDzh7EiB1U5KI5voId9q-179" edge="1">
          <mxGeometry relative="1" as="geometry">
            <Array as="points">
              <mxPoint x="1490" y="940" />
              <mxPoint x="1490" y="870" />
            </Array>
          </mxGeometry>
        </mxCell>
        <mxCell id="HiYHxnQxUSVBelimSYCU-32" style="edgeStyle=orthogonalEdgeStyle;rounded=0;orthogonalLoop=1;jettySize=auto;html=1;exitX=1;exitY=0.5;exitDx=0;exitDy=0;entryX=0;entryY=0.25;entryDx=0;entryDy=0;endArrow=none;endFill=0;" parent="1" source="VDzh7EiB1U5KI5voId9q-293" target="VDzh7EiB1U5KI5voId9q-235" edge="1">
          <mxGeometry relative="1" as="geometry" />
        </mxCell>
        <mxCell id="VDzh7EiB1U5KI5voId9q-293" value="matriculado" style="rhombus;whiteSpace=wrap;html=1;fillColor=#d5e8d4;strokeColor=#82b366;" parent="1" vertex="1">
          <mxGeometry x="1520" y="1010" width="80" height="80" as="geometry" />
        </mxCell>
        <mxCell id="VDzh7EiB1U5KI5voId9q-294" value="N:M" style="text;html=1;strokeColor=none;fillColor=none;align=center;verticalAlign=middle;whiteSpace=wrap;rounded=0;" parent="1" vertex="1">
          <mxGeometry x="1510" y="912" width="60" height="30" as="geometry" />
        </mxCell>
        <mxCell id="VDzh7EiB1U5KI5voId9q-310" value="1:N" style="text;html=1;align=center;verticalAlign=middle;resizable=0;points=[];autosize=1;strokeColor=none;fillColor=none;" parent="1" vertex="1">
          <mxGeometry x="1180" y="1158" width="40" height="30" as="geometry" />
        </mxCell>
        <mxCell id="VDzh7EiB1U5KI5voId9q-311" value="1:1" style="text;html=1;align=center;verticalAlign=middle;resizable=0;points=[];autosize=1;strokeColor=none;fillColor=none;" parent="1" vertex="1">
          <mxGeometry x="1300" y="1128" width="40" height="30" as="geometry" />
        </mxCell>
        <mxCell id="VDzh7EiB1U5KI5voId9q-315" style="edgeStyle=orthogonalEdgeStyle;rounded=0;orthogonalLoop=1;jettySize=auto;html=1;entryX=0;entryY=0;entryDx=0;entryDy=0;exitX=0;exitY=0.5;exitDx=0;exitDy=0;endArrow=none;endFill=0;" parent="1" source="VDzh7EiB1U5KI5voId9q-313" target="VDzh7EiB1U5KI5voId9q-250" edge="1">
          <mxGeometry relative="1" as="geometry">
            <Array as="points">
              <mxPoint x="1140" y="1088" />
              <mxPoint x="1140" y="1160" />
            </Array>
          </mxGeometry>
        </mxCell>
        <mxCell id="VDzh7EiB1U5KI5voId9q-313" value="prerrequisito" style="rhombus;whiteSpace=wrap;html=1;fillColor=#d5e8d4;strokeColor=#82b366;" parent="1" vertex="1">
          <mxGeometry x="1169" y="1048" width="80" height="80" as="geometry" />
        </mxCell>
        <mxCell id="VDzh7EiB1U5KI5voId9q-316" value="1:N" style="text;html=1;align=center;verticalAlign=middle;resizable=0;points=[];autosize=1;strokeColor=none;fillColor=none;" parent="1" vertex="1">
          <mxGeometry x="1189" y="1022" width="40" height="30" as="geometry" />
        </mxCell>
        <mxCell id="VDzh7EiB1U5KI5voId9q-318" style="edgeStyle=orthogonalEdgeStyle;rounded=0;orthogonalLoop=1;jettySize=auto;html=1;entryX=0.5;entryY=1;entryDx=0;entryDy=0;endArrow=none;endFill=0;exitX=0;exitY=0;exitDx=0;exitDy=0;" parent="1" source="VDzh7EiB1U5KI5voId9q-319" target="VDzh7EiB1U5KI5voId9q-326" edge="1">
          <mxGeometry relative="1" as="geometry">
            <Array as="points">
              <mxPoint x="1647.5" y="844" />
            </Array>
          </mxGeometry>
        </mxCell>
        <mxCell id="HiYHxnQxUSVBelimSYCU-4" style="edgeStyle=orthogonalEdgeStyle;rounded=0;orthogonalLoop=1;jettySize=auto;html=1;entryX=0.5;entryY=0;entryDx=0;entryDy=0;endArrow=none;endFill=0;" parent="1" source="VDzh7EiB1U5KI5voId9q-319" target="HiYHxnQxUSVBelimSYCU-3" edge="1">
          <mxGeometry relative="1" as="geometry">
            <mxPoint x="1750" y="950" as="targetPoint" />
          </mxGeometry>
        </mxCell>
        <mxCell id="HiYHxnQxUSVBelimSYCU-33" style="edgeStyle=orthogonalEdgeStyle;rounded=0;orthogonalLoop=1;jettySize=auto;html=1;exitX=0;exitY=0.5;exitDx=0;exitDy=0;entryX=1;entryY=0.5;entryDx=0;entryDy=0;endArrow=none;endFill=0;" parent="1" source="VDzh7EiB1U5KI5voId9q-319" target="HiYHxnQxUSVBelimSYCU-31" edge="1">
          <mxGeometry relative="1" as="geometry">
            <Array as="points">
              <mxPoint x="1660" y="869" />
              <mxPoint x="1660" y="904" />
            </Array>
          </mxGeometry>
        </mxCell>
        <mxCell id="VDzh7EiB1U5KI5voId9q-319" value="PROFESOR" style="rounded=0;whiteSpace=wrap;html=1;fillColor=#dae8fc;strokeColor=#6c8ebf;" parent="1" vertex="1">
          <mxGeometry x="1690" y="839" width="120" height="60" as="geometry" />
        </mxCell>
        <mxCell id="VDzh7EiB1U5KI5voId9q-323" value="1:N" style="text;html=1;strokeColor=none;fillColor=none;align=center;verticalAlign=middle;whiteSpace=wrap;rounded=0;" parent="1" vertex="1">
          <mxGeometry x="1695" y="1052" width="60" height="30" as="geometry" />
        </mxCell>
        <mxCell id="VDzh7EiB1U5KI5voId9q-324" value="1:N" style="text;html=1;strokeColor=none;fillColor=none;align=center;verticalAlign=middle;whiteSpace=wrap;rounded=0;" parent="1" vertex="1">
          <mxGeometry x="1760" y="899" width="60" height="30" as="geometry" />
        </mxCell>
        <mxCell id="VDzh7EiB1U5KI5voId9q-325" value="N:M" style="text;html=1;strokeColor=none;fillColor=none;align=center;verticalAlign=middle;whiteSpace=wrap;rounded=0;" parent="1" vertex="1">
          <mxGeometry x="1780" y="980" width="60" height="30" as="geometry" />
        </mxCell>
        <mxCell id="VDzh7EiB1U5KI5voId9q-326" value="id_profesor" style="ellipse;whiteSpace=wrap;html=1;align=center;fontStyle=4;fillColor=#e1d5e7;strokeColor=#9673a6;" parent="1" vertex="1">
          <mxGeometry x="1597.5" y="794" width="100" height="40" as="geometry" />
        </mxCell>
        <mxCell id="VDzh7EiB1U5KI5voId9q-329" style="edgeStyle=orthogonalEdgeStyle;rounded=0;orthogonalLoop=1;jettySize=auto;html=1;endArrow=none;endFill=0;entryX=1;entryY=0.5;entryDx=0;entryDy=0;" parent="1" source="VDzh7EiB1U5KI5voId9q-330" target="VDzh7EiB1U5KI5voId9q-319" edge="1">
          <mxGeometry relative="1" as="geometry">
            <mxPoint x="1810" y="880" as="targetPoint" />
          </mxGeometry>
        </mxCell>
        <mxCell id="VDzh7EiB1U5KI5voId9q-330" value="nombre" style="ellipse;whiteSpace=wrap;html=1;align=center;fillColor=#fff2cc;strokeColor=#d6b656;" parent="1" vertex="1">
          <mxGeometry x="1840" y="850" width="100" height="40" as="geometry" />
        </mxCell>
        <mxCell id="HiYHxnQxUSVBelimSYCU-1" style="edgeStyle=orthogonalEdgeStyle;rounded=0;orthogonalLoop=1;jettySize=auto;html=1;exitX=0;exitY=0;exitDx=0;exitDy=0;entryX=1;entryY=1;entryDx=0;entryDy=0;endArrow=none;endFill=0;" parent="1" source="VDzh7EiB1U5KI5voId9q-332" target="VDzh7EiB1U5KI5voId9q-319" edge="1">
          <mxGeometry relative="1" as="geometry" />
        </mxCell>
        <mxCell id="VDzh7EiB1U5KI5voId9q-332" value="apellidos" style="ellipse;whiteSpace=wrap;html=1;align=center;fillColor=#fff2cc;strokeColor=#d6b656;" parent="1" vertex="1">
          <mxGeometry x="1800" y="929" width="100" height="40" as="geometry" />
        </mxCell>
        <mxCell id="VDzh7EiB1U5KI5voId9q-341" style="edgeStyle=orthogonalEdgeStyle;rounded=0;orthogonalLoop=1;jettySize=auto;html=1;exitX=1;exitY=0;exitDx=0;exitDy=0;entryX=0;entryY=1;entryDx=0;entryDy=0;endArrow=none;endFill=0;" parent="1" source="VDzh7EiB1U5KI5voId9q-337" target="VDzh7EiB1U5KI5voId9q-235" edge="1">
          <mxGeometry relative="1" as="geometry">
            <Array as="points">
              <mxPoint x="1630" y="1125" />
            </Array>
          </mxGeometry>
        </mxCell>
        <mxCell id="VDzh7EiB1U5KI5voId9q-337" value="relacionada" style="rhombus;whiteSpace=wrap;html=1;fillColor=#d5e8d4;strokeColor=#82b366;" parent="1" vertex="1">
          <mxGeometry x="1470" y="1105" width="80" height="80" as="geometry" />
        </mxCell>
        <mxCell id="VDzh7EiB1U5KI5voId9q-338" value="N:M" style="text;html=1;strokeColor=none;fillColor=none;align=center;verticalAlign=middle;whiteSpace=wrap;rounded=0;" parent="1" vertex="1">
          <mxGeometry x="1480" y="1083" width="60" height="30" as="geometry" />
        </mxCell>
        <mxCell id="VDzh7EiB1U5KI5voId9q-340" value="1:N" style="text;html=1;strokeColor=none;fillColor=none;align=center;verticalAlign=middle;whiteSpace=wrap;rounded=0;" parent="1" vertex="1">
          <mxGeometry x="1340" y="1200" width="60" height="30" as="geometry" />
        </mxCell>
        <mxCell id="VDzh7EiB1U5KI5voId9q-342" value="1:N" style="text;html=1;strokeColor=none;fillColor=none;align=center;verticalAlign=middle;whiteSpace=wrap;rounded=0;" parent="1" vertex="1">
          <mxGeometry x="1655" y="1113" width="60" height="30" as="geometry" />
        </mxCell>
        <mxCell id="-P3A0L3aGcsIy8J95jdL-6" value="1:N" style="text;html=1;strokeColor=none;fillColor=none;align=center;verticalAlign=middle;whiteSpace=wrap;rounded=0;" parent="1" vertex="1">
          <mxGeometry x="1890" y="1128" width="60" height="30" as="geometry" />
        </mxCell>
        <mxCell id="-P3A0L3aGcsIy8J95jdL-7" value="1:N" style="text;html=1;strokeColor=none;fillColor=none;align=center;verticalAlign=middle;whiteSpace=wrap;rounded=0;" parent="1" vertex="1">
          <mxGeometry x="2070" y="1126" width="60" height="30" as="geometry" />
        </mxCell>
        <mxCell id="-P3A0L3aGcsIy8J95jdL-8" value="N:M" style="text;html=1;strokeColor=none;fillColor=none;align=center;verticalAlign=middle;whiteSpace=wrap;rounded=0;" parent="1" vertex="1">
          <mxGeometry x="1980" y="1197.5" width="60" height="30" as="geometry" />
        </mxCell>
        <mxCell id="-P3A0L3aGcsIy8J95jdL-15" style="edgeStyle=orthogonalEdgeStyle;rounded=0;orthogonalLoop=1;jettySize=auto;html=1;endArrow=none;endFill=0;entryX=1;entryY=1;entryDx=0;entryDy=0;" parent="1" source="-P3A0L3aGcsIy8J95jdL-14" target="VDzh7EiB1U5KI5voId9q-235" edge="1">
          <mxGeometry relative="1" as="geometry">
            <mxPoint x="1720" y="1140" as="targetPoint" />
            <Array as="points">
              <mxPoint x="1820" y="1158" />
            </Array>
          </mxGeometry>
        </mxCell>
        <mxCell id="-P3A0L3aGcsIy8J95jdL-14" value="lleva a cabo" style="rhombus;whiteSpace=wrap;html=1;fillColor=#d5e8d4;strokeColor=#82b366;" parent="1" vertex="1">
          <mxGeometry x="1970" y="1117.5" width="80" height="80" as="geometry" />
        </mxCell>
        <mxCell id="-P3A0L3aGcsIy8J95jdL-18" style="edgeStyle=orthogonalEdgeStyle;rounded=0;orthogonalLoop=1;jettySize=auto;html=1;entryX=1;entryY=0.5;entryDx=0;entryDy=0;endArrow=none;endFill=0;" parent="1" source="-P3A0L3aGcsIy8J95jdL-16" target="-P3A0L3aGcsIy8J95jdL-14" edge="1">
          <mxGeometry relative="1" as="geometry" />
        </mxCell>
        <mxCell id="-P3A0L3aGcsIy8J95jdL-20" style="edgeStyle=orthogonalEdgeStyle;rounded=0;orthogonalLoop=1;jettySize=auto;html=1;entryX=0.5;entryY=1;entryDx=0;entryDy=0;endArrow=none;endFill=0;" parent="1" source="-P3A0L3aGcsIy8J95jdL-16" target="-P3A0L3aGcsIy8J95jdL-19" edge="1">
          <mxGeometry relative="1" as="geometry" />
        </mxCell>
        <mxCell id="-P3A0L3aGcsIy8J95jdL-16" value="AULA" style="rounded=0;whiteSpace=wrap;html=1;fillColor=#dae8fc;strokeColor=#6c8ebf;" parent="1" vertex="1">
          <mxGeometry x="2130" y="1128" width="120" height="60" as="geometry" />
        </mxCell>
        <mxCell id="-P3A0L3aGcsIy8J95jdL-19" value="ID" style="ellipse;whiteSpace=wrap;html=1;align=center;fontStyle=4;fillColor=#e1d5e7;strokeColor=#9673a6;" parent="1" vertex="1">
          <mxGeometry x="2140" y="1043" width="100" height="40" as="geometry" />
        </mxCell>
        <mxCell id="-P3A0L3aGcsIy8J95jdL-21" value="" style="edgeStyle=orthogonalEdgeStyle;rounded=0;orthogonalLoop=1;jettySize=auto;html=1;endArrow=none;endFill=0;" parent="1" source="-P3A0L3aGcsIy8J95jdL-22" target="-P3A0L3aGcsIy8J95jdL-25" edge="1">
          <mxGeometry relative="1" as="geometry" />
        </mxCell>
        <mxCell id="-P3A0L3aGcsIy8J95jdL-22" value="DEPARTAMENTO" style="rounded=0;whiteSpace=wrap;html=1;fillColor=#dae8fc;strokeColor=#6c8ebf;" parent="1" vertex="1">
          <mxGeometry x="165" y="962" width="120" height="60" as="geometry" />
        </mxCell>
        <mxCell id="-P3A0L3aGcsIy8J95jdL-23" value="PROGRAMA ACADÉMICO" style="rounded=0;whiteSpace=wrap;html=1;fillColor=#dae8fc;strokeColor=#6c8ebf;" parent="1" vertex="1">
          <mxGeometry x="465" y="962" width="120" height="60" as="geometry" />
        </mxCell>
        <mxCell id="-P3A0L3aGcsIy8J95jdL-24" value="" style="edgeStyle=orthogonalEdgeStyle;rounded=0;orthogonalLoop=1;jettySize=auto;html=1;endArrow=none;endFill=0;" parent="1" source="-P3A0L3aGcsIy8J95jdL-25" target="-P3A0L3aGcsIy8J95jdL-23" edge="1">
          <mxGeometry relative="1" as="geometry" />
        </mxCell>
        <mxCell id="-P3A0L3aGcsIy8J95jdL-25" value="asociado" style="rhombus;whiteSpace=wrap;html=1;fillColor=#d5e8d4;strokeColor=#82b366;" parent="1" vertex="1">
          <mxGeometry x="335" y="952" width="80" height="80" as="geometry" />
        </mxCell>
        <mxCell id="-P3A0L3aGcsIy8J95jdL-26" value="1:N" style="text;html=1;strokeColor=none;fillColor=none;align=center;verticalAlign=middle;whiteSpace=wrap;rounded=0;" parent="1" vertex="1">
          <mxGeometry x="405" y="962" width="60" height="30" as="geometry" />
        </mxCell>
        <mxCell id="-P3A0L3aGcsIy8J95jdL-27" value="1:N" style="text;html=1;strokeColor=none;fillColor=none;align=center;verticalAlign=middle;whiteSpace=wrap;rounded=0;" parent="1" vertex="1">
          <mxGeometry x="285" y="962" width="60" height="30" as="geometry" />
        </mxCell>
        <mxCell id="-P3A0L3aGcsIy8J95jdL-28" value="N:M" style="text;html=1;strokeColor=none;fillColor=none;align=center;verticalAlign=middle;whiteSpace=wrap;rounded=0;" parent="1" vertex="1">
          <mxGeometry x="345" y="930" width="60" height="30" as="geometry" />
        </mxCell>
        <mxCell id="-P3A0L3aGcsIy8J95jdL-29" style="edgeStyle=orthogonalEdgeStyle;rounded=0;orthogonalLoop=1;jettySize=auto;html=1;entryX=0.5;entryY=0;entryDx=0;entryDy=0;endArrow=none;endFill=0;" parent="1" source="-P3A0L3aGcsIy8J95jdL-30" edge="1">
          <mxGeometry relative="1" as="geometry">
            <mxPoint x="525" y="962" as="targetPoint" />
          </mxGeometry>
        </mxCell>
        <mxCell id="-P3A0L3aGcsIy8J95jdL-30" value="ID" style="ellipse;whiteSpace=wrap;html=1;align=center;fontStyle=4;fillColor=#e1d5e7;strokeColor=#9673a6;" parent="1" vertex="1">
          <mxGeometry x="475" y="890" width="100" height="40" as="geometry" />
        </mxCell>
        <mxCell id="-P3A0L3aGcsIy8J95jdL-31" style="edgeStyle=orthogonalEdgeStyle;rounded=0;orthogonalLoop=1;jettySize=auto;html=1;entryX=0.5;entryY=0;entryDx=0;entryDy=0;endArrow=none;endFill=0;" parent="1" source="-P3A0L3aGcsIy8J95jdL-32" edge="1">
          <mxGeometry relative="1" as="geometry">
            <mxPoint x="225" y="962" as="targetPoint" />
          </mxGeometry>
        </mxCell>
        <mxCell id="-P3A0L3aGcsIy8J95jdL-32" value="ID" style="ellipse;whiteSpace=wrap;html=1;align=center;fontStyle=4;fillColor=#e1d5e7;strokeColor=#9673a6;" parent="1" vertex="1">
          <mxGeometry x="175" y="890" width="100" height="40" as="geometry" />
        </mxCell>
        <mxCell id="-P3A0L3aGcsIy8J95jdL-38" value="1:N" style="text;html=1;strokeColor=none;fillColor=none;align=center;verticalAlign=middle;whiteSpace=wrap;rounded=0;" parent="1" vertex="1">
          <mxGeometry x="1815" y="720" width="60" height="30" as="geometry" />
        </mxCell>
        <mxCell id="-P3A0L3aGcsIy8J95jdL-39" value="1:N" style="text;html=1;strokeColor=none;fillColor=none;align=center;verticalAlign=middle;whiteSpace=wrap;rounded=0;" parent="1" vertex="1">
          <mxGeometry x="2040" y="624" width="60" height="30" as="geometry" />
        </mxCell>
        <mxCell id="-P3A0L3aGcsIy8J95jdL-40" value="N:M" style="text;html=1;strokeColor=none;fillColor=none;align=center;verticalAlign=middle;whiteSpace=wrap;rounded=0;" parent="1" vertex="1">
          <mxGeometry x="1950" y="644" width="60" height="30" as="geometry" />
        </mxCell>
        <mxCell id="-P3A0L3aGcsIy8J95jdL-49" style="edgeStyle=orthogonalEdgeStyle;rounded=0;orthogonalLoop=1;jettySize=auto;html=1;entryX=0.5;entryY=0;entryDx=0;entryDy=0;endArrow=none;endFill=0;" parent="1" source="-P3A0L3aGcsIy8J95jdL-44" target="-P3A0L3aGcsIy8J95jdL-47" edge="1">
          <mxGeometry relative="1" as="geometry" />
        </mxCell>
        <mxCell id="-P3A0L3aGcsIy8J95jdL-44" value="ID" style="ellipse;whiteSpace=wrap;html=1;align=center;fontStyle=4;fillColor=#e1d5e7;strokeColor=#9673a6;" parent="1" vertex="1">
          <mxGeometry x="2050" y="497" width="100" height="40" as="geometry" />
        </mxCell>
        <mxCell id="-P3A0L3aGcsIy8J95jdL-45" value="asociado" style="rhombus;whiteSpace=wrap;html=1;fillColor=#d5e8d4;strokeColor=#82b366;" parent="1" vertex="1">
          <mxGeometry x="1940" y="677" width="80" height="80" as="geometry" />
        </mxCell>
        <mxCell id="-P3A0L3aGcsIy8J95jdL-48" style="edgeStyle=orthogonalEdgeStyle;rounded=0;orthogonalLoop=1;jettySize=auto;html=1;exitX=0;exitY=1;exitDx=0;exitDy=0;entryX=1;entryY=0.5;entryDx=0;entryDy=0;endArrow=none;endFill=0;" parent="1" source="-P3A0L3aGcsIy8J95jdL-47" target="-P3A0L3aGcsIy8J95jdL-45" edge="1">
          <mxGeometry relative="1" as="geometry" />
        </mxCell>
        <mxCell id="-P3A0L3aGcsIy8J95jdL-47" value="DEPARTAMENTO" style="rounded=0;whiteSpace=wrap;html=1;fillColor=#dae8fc;strokeColor=#6c8ebf;" parent="1" vertex="1">
          <mxGeometry x="2040" y="569" width="120" height="60" as="geometry" />
        </mxCell>
        <mxCell id="-P3A0L3aGcsIy8J95jdL-55" value="1:N" style="text;html=1;align=center;verticalAlign=middle;resizable=0;points=[];autosize=1;strokeColor=none;fillColor=none;" parent="1" vertex="1">
          <mxGeometry x="2160" y="569" width="40" height="30" as="geometry" />
        </mxCell>
        <mxCell id="-P3A0L3aGcsIy8J95jdL-56" value="1:1" style="text;html=1;align=center;verticalAlign=middle;resizable=0;points=[];autosize=1;strokeColor=none;fillColor=none;" parent="1" vertex="1">
          <mxGeometry x="2350" y="568" width="40" height="30" as="geometry" />
        </mxCell>
        <mxCell id="-P3A0L3aGcsIy8J95jdL-57" value="1:N" style="text;html=1;align=center;verticalAlign=middle;resizable=0;points=[];autosize=1;strokeColor=none;fillColor=none;" parent="1" vertex="1">
          <mxGeometry x="2250" y="538" width="40" height="30" as="geometry" />
        </mxCell>
        <mxCell id="-P3A0L3aGcsIy8J95jdL-58" style="edgeStyle=orthogonalEdgeStyle;rounded=0;orthogonalLoop=1;jettySize=auto;html=1;entryX=0.5;entryY=0;entryDx=0;entryDy=0;endArrow=none;endFill=0;" parent="1" source="-P3A0L3aGcsIy8J95jdL-59" edge="1">
          <mxGeometry relative="1" as="geometry">
            <mxPoint x="2450" y="569" as="targetPoint" />
          </mxGeometry>
        </mxCell>
        <mxCell id="-P3A0L3aGcsIy8J95jdL-59" value="ID" style="ellipse;whiteSpace=wrap;html=1;align=center;fontStyle=4;fillColor=#e1d5e7;strokeColor=#9673a6;" parent="1" vertex="1">
          <mxGeometry x="2400" y="497" width="100" height="40" as="geometry" />
        </mxCell>
        <mxCell id="-P3A0L3aGcsIy8J95jdL-64" style="edgeStyle=orthogonalEdgeStyle;rounded=0;orthogonalLoop=1;jettySize=auto;html=1;entryX=1;entryY=0.5;entryDx=0;entryDy=0;endArrow=none;endFill=0;" parent="1" source="-P3A0L3aGcsIy8J95jdL-62" target="-P3A0L3aGcsIy8J95jdL-47" edge="1">
          <mxGeometry relative="1" as="geometry" />
        </mxCell>
        <mxCell id="-P3A0L3aGcsIy8J95jdL-62" value="tiene" style="rhombus;whiteSpace=wrap;html=1;fillColor=#d5e8d4;strokeColor=#82b366;" parent="1" vertex="1">
          <mxGeometry x="2230" y="559" width="80" height="80" as="geometry" />
        </mxCell>
        <mxCell id="-P3A0L3aGcsIy8J95jdL-66" style="edgeStyle=orthogonalEdgeStyle;rounded=0;orthogonalLoop=1;jettySize=auto;html=1;entryX=1;entryY=0.5;entryDx=0;entryDy=0;endArrow=none;endFill=0;" parent="1" source="-P3A0L3aGcsIy8J95jdL-65" target="-P3A0L3aGcsIy8J95jdL-62" edge="1">
          <mxGeometry relative="1" as="geometry" />
        </mxCell>
        <mxCell id="-P3A0L3aGcsIy8J95jdL-65" value="EMPLEADOS ADMINISTRATIVOS" style="rounded=0;whiteSpace=wrap;html=1;fillColor=#dae8fc;strokeColor=#6c8ebf;" parent="1" vertex="1">
          <mxGeometry x="2390" y="569" width="120" height="60" as="geometry" />
        </mxCell>
        <mxCell id="-P3A0L3aGcsIy8J95jdL-75" style="edgeStyle=orthogonalEdgeStyle;rounded=0;orthogonalLoop=1;jettySize=auto;html=1;entryX=0.5;entryY=1;entryDx=0;entryDy=0;endArrow=none;endFill=0;" parent="1" source="-P3A0L3aGcsIy8J95jdL-76" target="-P3A0L3aGcsIy8J95jdL-77" edge="1">
          <mxGeometry relative="1" as="geometry" />
        </mxCell>
        <mxCell id="-P3A0L3aGcsIy8J95jdL-76" value="PROFESOR" style="rounded=0;whiteSpace=wrap;html=1;fillColor=#dae8fc;strokeColor=#6c8ebf;" parent="1" vertex="1">
          <mxGeometry x="470" y="2892" width="120" height="60" as="geometry" />
        </mxCell>
        <mxCell id="-P3A0L3aGcsIy8J95jdL-77" value="id_profesor" style="ellipse;whiteSpace=wrap;html=1;align=center;fontStyle=4;fillColor=#e1d5e7;strokeColor=#9673a6;" parent="1" vertex="1">
          <mxGeometry x="480" y="2810" width="100" height="40" as="geometry" />
        </mxCell>
        <mxCell id="-P3A0L3aGcsIy8J95jdL-78" style="edgeStyle=orthogonalEdgeStyle;rounded=0;orthogonalLoop=1;jettySize=auto;html=1;entryX=0.5;entryY=1;entryDx=0;entryDy=0;endArrow=none;endFill=0;" parent="1" source="-P3A0L3aGcsIy8J95jdL-79" target="-P3A0L3aGcsIy8J95jdL-76" edge="1">
          <mxGeometry relative="1" as="geometry" />
        </mxCell>
        <mxCell id="-P3A0L3aGcsIy8J95jdL-79" value="nombre" style="ellipse;whiteSpace=wrap;html=1;align=center;fillColor=#fff2cc;strokeColor=#d6b656;" parent="1" vertex="1">
          <mxGeometry x="480" y="2980" width="100" height="40" as="geometry" />
        </mxCell>
        <mxCell id="-P3A0L3aGcsIy8J95jdL-80" style="edgeStyle=orthogonalEdgeStyle;rounded=0;orthogonalLoop=1;jettySize=auto;html=1;entryX=1;entryY=0.5;entryDx=0;entryDy=0;endArrow=none;endFill=0;exitX=0;exitY=0.5;exitDx=0;exitDy=0;" parent="1" source="-P3A0L3aGcsIy8J95jdL-81" target="-P3A0L3aGcsIy8J95jdL-76" edge="1">
          <mxGeometry relative="1" as="geometry">
            <Array as="points">
              <mxPoint x="650" y="2922" />
              <mxPoint x="650" y="2922" />
            </Array>
          </mxGeometry>
        </mxCell>
        <mxCell id="-P3A0L3aGcsIy8J95jdL-81" value="apellidos" style="ellipse;whiteSpace=wrap;html=1;align=center;fillColor=#fff2cc;strokeColor=#d6b656;" parent="1" vertex="1">
          <mxGeometry x="630" y="2900" width="100" height="40" as="geometry" />
        </mxCell>
        <mxCell id="-P3A0L3aGcsIy8J95jdL-83" style="edgeStyle=orthogonalEdgeStyle;rounded=0;orthogonalLoop=1;jettySize=auto;html=1;entryX=0;entryY=0.5;entryDx=0;entryDy=0;endArrow=none;endFill=0;" parent="1" source="-P3A0L3aGcsIy8J95jdL-82" target="-P3A0L3aGcsIy8J95jdL-76" edge="1">
          <mxGeometry relative="1" as="geometry" />
        </mxCell>
        <mxCell id="-P3A0L3aGcsIy8J95jdL-84" style="edgeStyle=orthogonalEdgeStyle;rounded=0;orthogonalLoop=1;jettySize=auto;html=1;entryX=1;entryY=0.5;entryDx=0;entryDy=0;endArrow=none;endFill=0;" parent="1" source="-P3A0L3aGcsIy8J95jdL-82" edge="1">
          <mxGeometry relative="1" as="geometry">
            <mxPoint x="260" y="2922" as="targetPoint" />
          </mxGeometry>
        </mxCell>
        <mxCell id="-P3A0L3aGcsIy8J95jdL-82" value="es tutor" style="rhombus;whiteSpace=wrap;html=1;fillColor=#d5e8d4;strokeColor=#82b366;" parent="1" vertex="1">
          <mxGeometry x="327.5" y="2882" width="80" height="80" as="geometry" />
        </mxCell>
        <mxCell id="-P3A0L3aGcsIy8J95jdL-85" value="1:1" style="text;html=1;align=center;verticalAlign=middle;resizable=0;points=[];autosize=1;strokeColor=none;fillColor=none;" parent="1" vertex="1">
          <mxGeometry x="430" y="2892" width="40" height="30" as="geometry" />
        </mxCell>
        <mxCell id="-P3A0L3aGcsIy8J95jdL-86" value="0:1" style="text;html=1;align=center;verticalAlign=middle;resizable=0;points=[];autosize=1;strokeColor=none;fillColor=none;" parent="1" vertex="1">
          <mxGeometry x="265" y="2892" width="40" height="30" as="geometry" />
        </mxCell>
        <mxCell id="HiYHxnQxUSVBelimSYCU-3" value="imparte" style="rhombus;whiteSpace=wrap;html=1;fillColor=#d5e8d4;strokeColor=#82b366;" parent="1" vertex="1">
          <mxGeometry x="1710" y="954" width="80" height="80" as="geometry" />
        </mxCell>
        <mxCell id="HiYHxnQxUSVBelimSYCU-7" style="edgeStyle=orthogonalEdgeStyle;rounded=0;orthogonalLoop=1;jettySize=auto;html=1;endArrow=none;endFill=0;entryX=0.5;entryY=0;entryDx=0;entryDy=0;" parent="1" edge="1">
          <mxGeometry relative="1" as="geometry">
            <mxPoint x="515" y="3086.91" as="targetPoint" />
            <mxPoint x="305" y="3089.91" as="sourcePoint" />
            <Array as="points">
              <mxPoint x="305" y="3059.98" />
              <mxPoint x="515" y="3059.98" />
            </Array>
          </mxGeometry>
        </mxCell>
        <mxCell id="HiYHxnQxUSVBelimSYCU-8" value="ASIGNATURA" style="rounded=0;whiteSpace=wrap;html=1;fillColor=#dae8fc;strokeColor=#6c8ebf;" parent="1" vertex="1">
          <mxGeometry x="255" y="3091.91" width="120" height="60" as="geometry" />
        </mxCell>
        <mxCell id="HiYHxnQxUSVBelimSYCU-9" style="edgeStyle=orthogonalEdgeStyle;rounded=0;orthogonalLoop=1;jettySize=auto;html=1;entryX=0.44;entryY=1.023;entryDx=0;entryDy=0;entryPerimeter=0;endArrow=none;endFill=0;exitX=0.5;exitY=1;exitDx=0;exitDy=0;" parent="1" target="HiYHxnQxUSVBelimSYCU-8" edge="1">
          <mxGeometry relative="1" as="geometry">
            <mxPoint x="515" y="3166.91" as="sourcePoint" />
            <Array as="points">
              <mxPoint x="515" y="3189.98" />
              <mxPoint x="308" y="3189.98" />
            </Array>
          </mxGeometry>
        </mxCell>
        <mxCell id="HiYHxnQxUSVBelimSYCU-10" value="1:N" style="text;html=1;strokeColor=none;fillColor=none;align=center;verticalAlign=middle;whiteSpace=wrap;rounded=0;" parent="1" vertex="1">
          <mxGeometry x="545" y="3111.91" width="60" height="30" as="geometry" />
        </mxCell>
        <mxCell id="HiYHxnQxUSVBelimSYCU-11" style="edgeStyle=orthogonalEdgeStyle;rounded=0;orthogonalLoop=1;jettySize=auto;html=1;entryX=0;entryY=0.5;entryDx=0;entryDy=0;endArrow=none;endFill=0;" parent="1" source="HiYHxnQxUSVBelimSYCU-12" target="HiYHxnQxUSVBelimSYCU-8" edge="1">
          <mxGeometry relative="1" as="geometry" />
        </mxCell>
        <mxCell id="HiYHxnQxUSVBelimSYCU-12" value="ID" style="ellipse;whiteSpace=wrap;html=1;align=center;fontStyle=4;fillColor=#e1d5e7;strokeColor=#9673a6;" parent="1" vertex="1">
          <mxGeometry x="115" y="3101.91" width="100" height="40" as="geometry" />
        </mxCell>
        <mxCell id="HiYHxnQxUSVBelimSYCU-13" value="1:N" style="text;html=1;align=center;verticalAlign=middle;resizable=0;points=[];autosize=1;strokeColor=none;fillColor=none;" parent="1" vertex="1">
          <mxGeometry x="315" y="3061.98" width="40" height="30" as="geometry" />
        </mxCell>
        <mxCell id="HiYHxnQxUSVBelimSYCU-14" value="1:1" style="text;html=1;align=center;verticalAlign=middle;resizable=0;points=[];autosize=1;strokeColor=none;fillColor=none;" parent="1" vertex="1">
          <mxGeometry x="315" y="3151.98" width="40" height="30" as="geometry" />
        </mxCell>
        <mxCell id="HiYHxnQxUSVBelimSYCU-15" value="prerrequisito" style="rhombus;whiteSpace=wrap;html=1;fillColor=#d5e8d4;strokeColor=#82b366;" parent="1" vertex="1">
          <mxGeometry x="475" y="3086.91" width="80" height="80" as="geometry" />
        </mxCell>
        <mxCell id="HiYHxnQxUSVBelimSYCU-29" value="1:1" style="text;html=1;align=center;verticalAlign=middle;resizable=0;points=[];autosize=1;strokeColor=none;fillColor=none;" parent="1" vertex="1">
          <mxGeometry x="1655" y="874" width="40" height="30" as="geometry" />
        </mxCell>
        <mxCell id="HiYHxnQxUSVBelimSYCU-34" style="edgeStyle=orthogonalEdgeStyle;rounded=0;orthogonalLoop=1;jettySize=auto;html=1;entryX=1;entryY=0.75;entryDx=0;entryDy=0;endArrow=none;endFill=0;" parent="1" source="HiYHxnQxUSVBelimSYCU-31" target="VDzh7EiB1U5KI5voId9q-179" edge="1">
          <mxGeometry relative="1" as="geometry" />
        </mxCell>
        <mxCell id="HiYHxnQxUSVBelimSYCU-31" value="es tutor" style="rhombus;whiteSpace=wrap;html=1;fillColor=#d5e8d4;strokeColor=#82b366;" parent="1" vertex="1">
          <mxGeometry x="1565" y="864" width="80" height="80" as="geometry" />
        </mxCell>
        <mxCell id="HiYHxnQxUSVBelimSYCU-35" value="1:1" style="text;html=1;align=center;verticalAlign=middle;resizable=0;points=[];autosize=1;strokeColor=none;fillColor=none;" parent="1" vertex="1">
          <mxGeometry x="345" y="2860" width="40" height="30" as="geometry" />
        </mxCell>
        <mxCell id="HiYHxnQxUSVBelimSYCU-37" value="1:1" style="text;html=1;align=center;verticalAlign=middle;resizable=0;points=[];autosize=1;strokeColor=none;fillColor=none;" parent="1" vertex="1">
          <mxGeometry x="1585" y="839" width="40" height="30" as="geometry" />
        </mxCell>
        <mxCell id="VDzh7EiB1U5KI5voId9q-185" value="1:N" style="text;html=1;strokeColor=none;fillColor=none;align=center;verticalAlign=middle;whiteSpace=wrap;rounded=0;" parent="1" vertex="1">
          <mxGeometry x="1450" y="780" width="60" height="30" as="geometry" />
        </mxCell>
        <mxCell id="HiYHxnQxUSVBelimSYCU-41" value="0:1" style="text;html=1;align=center;verticalAlign=middle;resizable=0;points=[];autosize=1;strokeColor=none;fillColor=none;" parent="1" vertex="1">
          <mxGeometry x="1450" y="827" width="40" height="30" as="geometry" />
        </mxCell>
        <mxCell id="HiYHxnQxUSVBelimSYCU-43" value="EMPRESA ASOCIADA" style="rounded=0;whiteSpace=wrap;html=1;fillColor=#dae8fc;strokeColor=#6c8ebf;" parent="1" vertex="1">
          <mxGeometry x="1330" y="278" width="120" height="60" as="geometry" />
        </mxCell>
        <mxCell id="HiYHxnQxUSVBelimSYCU-44" style="edgeStyle=orthogonalEdgeStyle;rounded=0;orthogonalLoop=1;jettySize=auto;html=1;entryX=0.5;entryY=0;entryDx=0;entryDy=0;endArrow=none;endFill=0;" parent="1" source="HiYHxnQxUSVBelimSYCU-46" target="VDzh7EiB1U5KI5voId9q-266" edge="1">
          <mxGeometry relative="1" as="geometry">
            <mxPoint x="1270" y="290" as="targetPoint" />
          </mxGeometry>
        </mxCell>
        <mxCell id="HiYHxnQxUSVBelimSYCU-45" style="edgeStyle=orthogonalEdgeStyle;rounded=0;orthogonalLoop=1;jettySize=auto;html=1;entryX=0.5;entryY=1;entryDx=0;entryDy=0;endArrow=none;endFill=0;exitX=0.5;exitY=0;exitDx=0;exitDy=0;" parent="1" source="HiYHxnQxUSVBelimSYCU-46" target="HiYHxnQxUSVBelimSYCU-43" edge="1">
          <mxGeometry relative="1" as="geometry" />
        </mxCell>
        <mxCell id="HiYHxnQxUSVBelimSYCU-46" value="proporciona" style="rhombus;whiteSpace=wrap;html=1;fillColor=#d5e8d4;strokeColor=#82b366;" parent="1" vertex="1">
          <mxGeometry x="1350" y="380" width="80" height="80" as="geometry" />
        </mxCell>
        <mxCell id="HiYHxnQxUSVBelimSYCU-47" value="0:N" style="text;html=1;align=center;verticalAlign=middle;resizable=0;points=[];autosize=1;strokeColor=none;fillColor=none;" parent="1" vertex="1">
          <mxGeometry x="1340" y="470" width="40" height="30" as="geometry" />
        </mxCell>
        <mxCell id="HiYHxnQxUSVBelimSYCU-48" value="1:N" style="text;html=1;align=center;verticalAlign=middle;resizable=0;points=[];autosize=1;strokeColor=none;fillColor=none;" parent="1" vertex="1">
          <mxGeometry x="1350" y="340" width="40" height="30" as="geometry" />
        </mxCell>
        <mxCell id="HiYHxnQxUSVBelimSYCU-49" value="N:M" style="text;html=1;align=center;verticalAlign=middle;resizable=0;points=[];autosize=1;strokeColor=none;fillColor=none;" parent="1" vertex="1">
          <mxGeometry x="1300" y="405" width="50" height="30" as="geometry" />
        </mxCell>
        <mxCell id="HiYHxnQxUSVBelimSYCU-50" style="edgeStyle=orthogonalEdgeStyle;rounded=0;orthogonalLoop=1;jettySize=auto;html=1;entryX=0.5;entryY=0;entryDx=0;entryDy=0;endArrow=none;endFill=0;" parent="1" source="HiYHxnQxUSVBelimSYCU-51" target="HiYHxnQxUSVBelimSYCU-43" edge="1">
          <mxGeometry relative="1" as="geometry">
            <mxPoint x="1522.5" y="310" as="targetPoint" />
          </mxGeometry>
        </mxCell>
        <mxCell id="HiYHxnQxUSVBelimSYCU-51" value="ID" style="ellipse;whiteSpace=wrap;html=1;align=center;fontStyle=4;fillColor=#e1d5e7;strokeColor=#9673a6;" parent="1" vertex="1">
          <mxGeometry x="1340" y="210" width="100" height="40" as="geometry" />
        </mxCell>
        <mxCell id="HiYHxnQxUSVBelimSYCU-53" value="" style="edgeStyle=orthogonalEdgeStyle;rounded=0;orthogonalLoop=1;jettySize=auto;html=1;endArrow=none;endFill=0;" parent="1" source="HiYHxnQxUSVBelimSYCU-54" target="HiYHxnQxUSVBelimSYCU-64" edge="1">
          <mxGeometry relative="1" as="geometry" />
        </mxCell>
        <mxCell id="HiYHxnQxUSVBelimSYCU-54" value="EVENTO" style="rounded=0;whiteSpace=wrap;html=1;fillColor=#dae8fc;strokeColor=#6c8ebf;" parent="1" vertex="1">
          <mxGeometry x="1040" y="278" width="120" height="60" as="geometry" />
        </mxCell>
        <mxCell id="HiYHxnQxUSVBelimSYCU-59" value="1:N" style="text;html=1;align=center;verticalAlign=middle;resizable=0;points=[];autosize=1;strokeColor=none;fillColor=none;" parent="1" vertex="1">
          <mxGeometry x="1290" y="280" width="40" height="30" as="geometry" />
        </mxCell>
        <mxCell id="HiYHxnQxUSVBelimSYCU-64" value="ID" style="ellipse;whiteSpace=wrap;html=1;align=center;fontStyle=4;fillColor=#e1d5e7;strokeColor=#9673a6;" parent="1" vertex="1">
          <mxGeometry x="1050" y="206" width="100" height="40" as="geometry" />
        </mxCell>
        <mxCell id="HiYHxnQxUSVBelimSYCU-65" style="edgeStyle=orthogonalEdgeStyle;rounded=0;orthogonalLoop=1;jettySize=auto;html=1;entryX=1;entryY=0.5;entryDx=0;entryDy=0;endArrow=none;endFill=0;exitX=0;exitY=0.5;exitDx=0;exitDy=0;" parent="1" source="HiYHxnQxUSVBelimSYCU-67" target="HiYHxnQxUSVBelimSYCU-54" edge="1">
          <mxGeometry relative="1" as="geometry">
            <mxPoint x="1150" y="308" as="targetPoint" />
          </mxGeometry>
        </mxCell>
        <mxCell id="HiYHxnQxUSVBelimSYCU-66" style="edgeStyle=orthogonalEdgeStyle;rounded=0;orthogonalLoop=1;jettySize=auto;html=1;endArrow=none;endFill=0;entryX=0;entryY=0.5;entryDx=0;entryDy=0;" parent="1" source="HiYHxnQxUSVBelimSYCU-67" target="HiYHxnQxUSVBelimSYCU-43" edge="1">
          <mxGeometry relative="1" as="geometry">
            <mxPoint x="1320" y="308" as="targetPoint" />
          </mxGeometry>
        </mxCell>
        <mxCell id="HiYHxnQxUSVBelimSYCU-67" value="patrocinan" style="rhombus;whiteSpace=wrap;html=1;fillColor=#d5e8d4;strokeColor=#82b366;" parent="1" vertex="1">
          <mxGeometry x="1210" y="268" width="80" height="80" as="geometry" />
        </mxCell>
        <mxCell id="HiYHxnQxUSVBelimSYCU-68" value="0:N" style="text;html=1;align=center;verticalAlign=middle;resizable=0;points=[];autosize=1;strokeColor=none;fillColor=none;" parent="1" vertex="1">
          <mxGeometry x="1160" y="280" width="40" height="30" as="geometry" />
        </mxCell>
        <mxCell id="HiYHxnQxUSVBelimSYCU-69" value="N:M" style="text;html=1;align=center;verticalAlign=middle;resizable=0;points=[];autosize=1;strokeColor=none;fillColor=none;" parent="1" vertex="1">
          <mxGeometry x="1225" y="246" width="50" height="30" as="geometry" />
        </mxCell>
        <mxCell id="HiYHxnQxUSVBelimSYCU-70" value="UNIVERSIDAD" style="rounded=0;whiteSpace=wrap;html=1;fillColor=#dae8fc;strokeColor=#6c8ebf;" parent="1" vertex="1">
          <mxGeometry x="755" y="280" width="120" height="60" as="geometry" />
        </mxCell>
        <mxCell id="HiYHxnQxUSVBelimSYCU-71" style="edgeStyle=orthogonalEdgeStyle;rounded=0;orthogonalLoop=1;jettySize=auto;html=1;entryX=0;entryY=0.5;entryDx=0;entryDy=0;endArrow=none;endFill=0;" parent="1" source="HiYHxnQxUSVBelimSYCU-73" target="HiYHxnQxUSVBelimSYCU-54" edge="1">
          <mxGeometry relative="1" as="geometry">
            <mxPoint x="1130.5" y="520" as="targetPoint" />
          </mxGeometry>
        </mxCell>
        <mxCell id="HiYHxnQxUSVBelimSYCU-72" style="edgeStyle=orthogonalEdgeStyle;rounded=0;orthogonalLoop=1;jettySize=auto;html=1;entryX=1;entryY=0.5;entryDx=0;entryDy=0;endArrow=none;endFill=0;exitX=0;exitY=0.5;exitDx=0;exitDy=0;" parent="1" source="HiYHxnQxUSVBelimSYCU-73" target="HiYHxnQxUSVBelimSYCU-70" edge="1">
          <mxGeometry relative="1" as="geometry">
            <mxPoint x="1100" y="478" as="sourcePoint" />
          </mxGeometry>
        </mxCell>
        <mxCell id="HiYHxnQxUSVBelimSYCU-73" value="organiza" style="rhombus;whiteSpace=wrap;html=1;fillColor=#d5e8d4;strokeColor=#82b366;" parent="1" vertex="1">
          <mxGeometry x="910" y="268" width="80" height="80" as="geometry" />
        </mxCell>
        <mxCell id="HiYHxnQxUSVBelimSYCU-74" value="0:N" style="text;html=1;align=center;verticalAlign=middle;resizable=0;points=[];autosize=1;strokeColor=none;fillColor=none;" parent="1" vertex="1">
          <mxGeometry x="1000" y="280" width="40" height="30" as="geometry" />
        </mxCell>
        <mxCell id="HiYHxnQxUSVBelimSYCU-75" value="0:1" style="text;html=1;align=center;verticalAlign=middle;resizable=0;points=[];autosize=1;strokeColor=none;fillColor=none;" parent="1" vertex="1">
          <mxGeometry x="875" y="280" width="40" height="30" as="geometry" />
        </mxCell>
        <mxCell id="HiYHxnQxUSVBelimSYCU-76" value="1:N" style="text;html=1;align=center;verticalAlign=middle;resizable=0;points=[];autosize=1;strokeColor=none;fillColor=none;" parent="1" vertex="1">
          <mxGeometry x="930" y="248" width="40" height="30" as="geometry" />
        </mxCell>
        <mxCell id="HiYHxnQxUSVBelimSYCU-77" style="edgeStyle=orthogonalEdgeStyle;rounded=0;orthogonalLoop=1;jettySize=auto;html=1;exitX=0.5;exitY=0;exitDx=0;exitDy=0;entryX=0.5;entryY=1;entryDx=0;entryDy=0;endArrow=none;endFill=0;" parent="1" source="HiYHxnQxUSVBelimSYCU-78" target="HiYHxnQxUSVBelimSYCU-70" edge="1">
          <mxGeometry relative="1" as="geometry" />
        </mxCell>
        <mxCell id="HiYHxnQxUSVBelimSYCU-78" value="ID" style="ellipse;whiteSpace=wrap;html=1;align=center;fontStyle=4;fillColor=#e1d5e7;strokeColor=#9673a6;" parent="1" vertex="1">
          <mxGeometry x="760" y="370" width="100" height="40" as="geometry" />
        </mxCell>
        <mxCell id="HiYHxnQxUSVBelimSYCU-79" value="INSTALACIONES DEPORTIVAS" style="rounded=0;whiteSpace=wrap;html=1;fillColor=#dae8fc;strokeColor=#6c8ebf;" parent="1" vertex="1">
          <mxGeometry x="1040" y="513" width="120" height="60" as="geometry" />
        </mxCell>
        <mxCell id="HiYHxnQxUSVBelimSYCU-80" style="edgeStyle=orthogonalEdgeStyle;rounded=0;orthogonalLoop=1;jettySize=auto;html=1;entryX=0.5;entryY=0;entryDx=0;entryDy=0;endArrow=none;endFill=0;" parent="1" source="HiYHxnQxUSVBelimSYCU-82" target="HiYHxnQxUSVBelimSYCU-79" edge="1">
          <mxGeometry relative="1" as="geometry" />
        </mxCell>
        <mxCell id="HiYHxnQxUSVBelimSYCU-81" style="edgeStyle=orthogonalEdgeStyle;rounded=0;orthogonalLoop=1;jettySize=auto;html=1;entryX=0.5;entryY=1;entryDx=0;entryDy=0;endArrow=none;endFill=0;" parent="1" source="HiYHxnQxUSVBelimSYCU-82" target="HiYHxnQxUSVBelimSYCU-54" edge="1">
          <mxGeometry relative="1" as="geometry">
            <mxPoint x="690" y="686" as="targetPoint" />
          </mxGeometry>
        </mxCell>
        <mxCell id="HiYHxnQxUSVBelimSYCU-82" value="utiliza" style="rhombus;whiteSpace=wrap;html=1;fillColor=#d5e8d4;strokeColor=#82b366;" parent="1" vertex="1">
          <mxGeometry x="1060" y="380" width="80" height="80" as="geometry" />
        </mxCell>
        <mxCell id="HiYHxnQxUSVBelimSYCU-83" value="1:N" style="text;html=1;align=center;verticalAlign=middle;resizable=0;points=[];autosize=1;strokeColor=none;fillColor=none;" parent="1" vertex="1">
          <mxGeometry x="1060" y="338" width="40" height="30" as="geometry" />
        </mxCell>
        <mxCell id="HiYHxnQxUSVBelimSYCU-84" value="1:N" style="text;html=1;align=center;verticalAlign=middle;resizable=0;points=[];autosize=1;strokeColor=none;fillColor=none;" parent="1" vertex="1">
          <mxGeometry x="1100" y="483" width="40" height="30" as="geometry" />
        </mxCell>
        <mxCell id="HiYHxnQxUSVBelimSYCU-85" value="N:M" style="text;html=1;align=center;verticalAlign=middle;resizable=0;points=[];autosize=1;strokeColor=none;fillColor=none;" parent="1" vertex="1">
          <mxGeometry x="1020" y="405" width="50" height="30" as="geometry" />
        </mxCell>
        <mxCell id="HiYHxnQxUSVBelimSYCU-89" value="" style="edgeStyle=orthogonalEdgeStyle;rounded=0;orthogonalLoop=1;jettySize=auto;html=1;entryX=0.5;entryY=1;entryDx=0;entryDy=0;endArrow=none;endFill=0;" parent="1" source="HiYHxnQxUSVBelimSYCU-87" target="HiYHxnQxUSVBelimSYCU-79" edge="1">
          <mxGeometry relative="1" as="geometry">
            <mxPoint x="1140" y="585" as="targetPoint" />
          </mxGeometry>
        </mxCell>
        <mxCell id="HiYHxnQxUSVBelimSYCU-87" value="ID" style="ellipse;whiteSpace=wrap;html=1;align=center;fontStyle=4;fillColor=#e1d5e7;strokeColor=#9673a6;" parent="1" vertex="1">
          <mxGeometry x="1050" y="599" width="100" height="40" as="geometry" />
        </mxCell>
        <mxCell id="XF1m2_q1DX8hMy2PzHUQ-1" value="LIBRO" style="rounded=0;whiteSpace=wrap;html=1;fillColor=#dae8fc;strokeColor=#6c8ebf;" parent="1" vertex="1">
          <mxGeometry x="1000" y="809" width="120" height="60" as="geometry" />
        </mxCell>
        <mxCell id="XF1m2_q1DX8hMy2PzHUQ-4" style="edgeStyle=orthogonalEdgeStyle;rounded=0;orthogonalLoop=1;jettySize=auto;html=1;entryX=0;entryY=0.5;entryDx=0;entryDy=0;endArrow=none;endFill=0;" parent="1" source="XF1m2_q1DX8hMy2PzHUQ-3" target="VDzh7EiB1U5KI5voId9q-179" edge="1">
          <mxGeometry relative="1" as="geometry" />
        </mxCell>
        <mxCell id="XF1m2_q1DX8hMy2PzHUQ-5" style="edgeStyle=orthogonalEdgeStyle;rounded=0;orthogonalLoop=1;jettySize=auto;html=1;entryX=1;entryY=0.5;entryDx=0;entryDy=0;endArrow=none;endFill=0;" parent="1" source="XF1m2_q1DX8hMy2PzHUQ-3" target="XF1m2_q1DX8hMy2PzHUQ-1" edge="1">
          <mxGeometry relative="1" as="geometry" />
        </mxCell>
        <mxCell id="XF1m2_q1DX8hMy2PzHUQ-3" value="prestado" style="rhombus;whiteSpace=wrap;html=1;fillColor=#d5e8d4;strokeColor=#82b366;" parent="1" vertex="1">
          <mxGeometry x="1195" y="794" width="80" height="80" as="geometry" />
        </mxCell>
        <mxCell id="XF1m2_q1DX8hMy2PzHUQ-6" value="1:1" style="text;html=1;align=center;verticalAlign=middle;resizable=0;points=[];autosize=1;strokeColor=none;fillColor=none;" parent="1" vertex="1">
          <mxGeometry x="1120" y="809" width="40" height="30" as="geometry" />
        </mxCell>
        <mxCell id="XF1m2_q1DX8hMy2PzHUQ-7" value="1:1" style="text;html=1;align=center;verticalAlign=middle;resizable=0;points=[];autosize=1;strokeColor=none;fillColor=none;" parent="1" vertex="1">
          <mxGeometry x="1290" y="808" width="40" height="30" as="geometry" />
        </mxCell>
        <mxCell id="XF1m2_q1DX8hMy2PzHUQ-8" value="1:1" style="text;html=1;align=center;verticalAlign=middle;resizable=0;points=[];autosize=1;strokeColor=none;fillColor=none;" parent="1" vertex="1">
          <mxGeometry x="1215" y="764" width="40" height="30" as="geometry" />
        </mxCell>
        <mxCell id="XF1m2_q1DX8hMy2PzHUQ-9" value="ESTUDIANTE" style="rounded=0;whiteSpace=wrap;html=1;fillColor=#dae8fc;strokeColor=#6c8ebf;" parent="1" vertex="1">
          <mxGeometry x="460" y="3240" width="120" height="60" as="geometry" />
        </mxCell>
        <mxCell id="XF1m2_q1DX8hMy2PzHUQ-14" value="LIBRO" style="rounded=0;whiteSpace=wrap;html=1;fillColor=#dae8fc;strokeColor=#6c8ebf;" parent="1" vertex="1">
          <mxGeometry x="130" y="3239" width="120" height="60" as="geometry" />
        </mxCell>
        <mxCell id="XF1m2_q1DX8hMy2PzHUQ-15" style="edgeStyle=orthogonalEdgeStyle;rounded=0;orthogonalLoop=1;jettySize=auto;html=1;entryX=0;entryY=0.5;entryDx=0;entryDy=0;endArrow=none;endFill=0;" parent="1" source="XF1m2_q1DX8hMy2PzHUQ-17" target="XF1m2_q1DX8hMy2PzHUQ-9" edge="1">
          <mxGeometry relative="1" as="geometry" />
        </mxCell>
        <mxCell id="XF1m2_q1DX8hMy2PzHUQ-16" style="edgeStyle=orthogonalEdgeStyle;rounded=0;orthogonalLoop=1;jettySize=auto;html=1;entryX=1;entryY=0.5;entryDx=0;entryDy=0;endArrow=none;endFill=0;" parent="1" source="XF1m2_q1DX8hMy2PzHUQ-17" target="XF1m2_q1DX8hMy2PzHUQ-14" edge="1">
          <mxGeometry relative="1" as="geometry" />
        </mxCell>
        <mxCell id="XF1m2_q1DX8hMy2PzHUQ-17" value="recibe" style="rhombus;whiteSpace=wrap;html=1;fillColor=#d5e8d4;strokeColor=#82b366;" parent="1" vertex="1">
          <mxGeometry x="325" y="3224" width="80" height="80" as="geometry" />
        </mxCell>
        <mxCell id="XF1m2_q1DX8hMy2PzHUQ-18" value="1:1" style="text;html=1;align=center;verticalAlign=middle;resizable=0;points=[];autosize=1;strokeColor=none;fillColor=none;" parent="1" vertex="1">
          <mxGeometry x="250" y="3239" width="40" height="30" as="geometry" />
        </mxCell>
        <mxCell id="XF1m2_q1DX8hMy2PzHUQ-19" value="1:1" style="text;html=1;align=center;verticalAlign=middle;resizable=0;points=[];autosize=1;strokeColor=none;fillColor=none;" parent="1" vertex="1">
          <mxGeometry x="420" y="3238" width="40" height="30" as="geometry" />
        </mxCell>
        <mxCell id="XF1m2_q1DX8hMy2PzHUQ-22" style="edgeStyle=orthogonalEdgeStyle;rounded=0;orthogonalLoop=1;jettySize=auto;html=1;entryX=0;entryY=0.5;entryDx=0;entryDy=0;endArrow=none;endFill=0;" parent="1" source="XF1m2_q1DX8hMy2PzHUQ-20" target="XF1m2_q1DX8hMy2PzHUQ-23" edge="1">
          <mxGeometry relative="1" as="geometry">
            <Array as="points">
              <mxPoint x="950" y="730" />
              <mxPoint x="950" y="730" />
            </Array>
          </mxGeometry>
        </mxCell>
        <mxCell id="XF1m2_q1DX8hMy2PzHUQ-20" value="GÉNERO" style="rounded=0;whiteSpace=wrap;html=1;fillColor=#dae8fc;strokeColor=#6c8ebf;" parent="1" vertex="1">
          <mxGeometry x="875" y="609" width="120" height="60" as="geometry" />
        </mxCell>
        <mxCell id="XF1m2_q1DX8hMy2PzHUQ-24" style="edgeStyle=orthogonalEdgeStyle;rounded=0;orthogonalLoop=1;jettySize=auto;html=1;entryX=0.25;entryY=0;entryDx=0;entryDy=0;exitX=1;exitY=0.5;exitDx=0;exitDy=0;endArrow=none;endFill=0;" parent="1" source="XF1m2_q1DX8hMy2PzHUQ-23" target="XF1m2_q1DX8hMy2PzHUQ-1" edge="1">
          <mxGeometry relative="1" as="geometry">
            <Array as="points">
              <mxPoint x="1030" y="780" />
              <mxPoint x="1030" y="780" />
            </Array>
          </mxGeometry>
        </mxCell>
        <mxCell id="XF1m2_q1DX8hMy2PzHUQ-23" value="tiene" style="rhombus;whiteSpace=wrap;html=1;fillColor=#d5e8d4;strokeColor=#82b366;" parent="1" vertex="1">
          <mxGeometry x="950" y="704" width="80" height="80" as="geometry" />
        </mxCell>
        <mxCell id="XF1m2_q1DX8hMy2PzHUQ-25" value="1:N" style="text;html=1;align=center;verticalAlign=middle;resizable=0;points=[];autosize=1;strokeColor=none;fillColor=none;" parent="1" vertex="1">
          <mxGeometry x="910" y="668" width="40" height="30" as="geometry" />
        </mxCell>
        <mxCell id="XF1m2_q1DX8hMy2PzHUQ-26" value="1:N" style="text;html=1;align=center;verticalAlign=middle;resizable=0;points=[];autosize=1;strokeColor=none;fillColor=none;" parent="1" vertex="1">
          <mxGeometry x="1025" y="784" width="40" height="30" as="geometry" />
        </mxCell>
        <mxCell id="XF1m2_q1DX8hMy2PzHUQ-27" value="N:M" style="text;html=1;align=center;verticalAlign=middle;resizable=0;points=[];autosize=1;strokeColor=none;fillColor=none;" parent="1" vertex="1">
          <mxGeometry x="985" y="688" width="50" height="30" as="geometry" />
        </mxCell>
        <mxCell id="XF1m2_q1DX8hMy2PzHUQ-28" value="BIBLIOTECA" style="rounded=0;whiteSpace=wrap;html=1;fillColor=#dae8fc;strokeColor=#6c8ebf;" parent="1" vertex="1">
          <mxGeometry x="790" y="1020" width="120" height="60" as="geometry" />
        </mxCell>
        <mxCell id="XF1m2_q1DX8hMy2PzHUQ-31" style="edgeStyle=orthogonalEdgeStyle;rounded=0;orthogonalLoop=1;jettySize=auto;html=1;entryX=1;entryY=0.5;entryDx=0;entryDy=0;exitX=0.5;exitY=1;exitDx=0;exitDy=0;endArrow=none;endFill=0;" parent="1" source="XF1m2_q1DX8hMy2PzHUQ-30" target="XF1m2_q1DX8hMy2PzHUQ-28" edge="1">
          <mxGeometry relative="1" as="geometry" />
        </mxCell>
        <mxCell id="XF1m2_q1DX8hMy2PzHUQ-32" style="edgeStyle=orthogonalEdgeStyle;rounded=0;orthogonalLoop=1;jettySize=auto;html=1;exitX=0.5;exitY=0;exitDx=0;exitDy=0;entryX=0.5;entryY=1;entryDx=0;entryDy=0;endArrow=none;endFill=0;" parent="1" source="XF1m2_q1DX8hMy2PzHUQ-30" target="XF1m2_q1DX8hMy2PzHUQ-1" edge="1">
          <mxGeometry relative="1" as="geometry" />
        </mxCell>
        <mxCell id="XF1m2_q1DX8hMy2PzHUQ-30" value="tiene" style="rhombus;whiteSpace=wrap;html=1;fillColor=#d5e8d4;strokeColor=#82b366;" parent="1" vertex="1">
          <mxGeometry x="1020" y="944" width="80" height="80" as="geometry" />
        </mxCell>
        <mxCell id="XF1m2_q1DX8hMy2PzHUQ-33" value="1:1" style="text;html=1;align=center;verticalAlign=middle;resizable=0;points=[];autosize=1;strokeColor=none;fillColor=none;" parent="1" vertex="1">
          <mxGeometry x="910" y="1022" width="40" height="30" as="geometry" />
        </mxCell>
        <mxCell id="XF1m2_q1DX8hMy2PzHUQ-34" value="1:N" style="text;html=1;align=center;verticalAlign=middle;resizable=0;points=[];autosize=1;strokeColor=none;fillColor=none;" parent="1" vertex="1">
          <mxGeometry x="1020" y="869" width="40" height="30" as="geometry" />
        </mxCell>
        <mxCell id="XF1m2_q1DX8hMy2PzHUQ-35" value="1:N" style="text;html=1;align=center;verticalAlign=middle;resizable=0;points=[];autosize=1;strokeColor=none;fillColor=none;" parent="1" vertex="1">
          <mxGeometry x="1095" y="969" width="40" height="30" as="geometry" />
        </mxCell>
        <mxCell id="XF1m2_q1DX8hMy2PzHUQ-36" value="LIBRO" style="rounded=0;whiteSpace=wrap;html=1;fillColor=#dae8fc;strokeColor=#6c8ebf;" parent="1" vertex="1">
          <mxGeometry x="480" y="3380" width="120" height="60" as="geometry" />
        </mxCell>
        <mxCell id="XF1m2_q1DX8hMy2PzHUQ-37" value="BIBLIOTECA" style="rounded=0;whiteSpace=wrap;html=1;fillColor=#dae8fc;strokeColor=#6c8ebf;" parent="1" vertex="1">
          <mxGeometry x="115" y="3380" width="120" height="60" as="geometry" />
        </mxCell>
        <mxCell id="XF1m2_q1DX8hMy2PzHUQ-38" style="edgeStyle=orthogonalEdgeStyle;rounded=0;orthogonalLoop=1;jettySize=auto;html=1;entryX=1;entryY=0.5;entryDx=0;entryDy=0;exitX=0;exitY=0.5;exitDx=0;exitDy=0;endArrow=none;endFill=0;" parent="1" source="XF1m2_q1DX8hMy2PzHUQ-40" target="XF1m2_q1DX8hMy2PzHUQ-37" edge="1">
          <mxGeometry relative="1" as="geometry" />
        </mxCell>
        <mxCell id="XF1m2_q1DX8hMy2PzHUQ-39" style="edgeStyle=orthogonalEdgeStyle;rounded=0;orthogonalLoop=1;jettySize=auto;html=1;exitX=1;exitY=0.5;exitDx=0;exitDy=0;entryX=0;entryY=0.5;entryDx=0;entryDy=0;endArrow=none;endFill=0;" parent="1" source="XF1m2_q1DX8hMy2PzHUQ-40" target="XF1m2_q1DX8hMy2PzHUQ-36" edge="1">
          <mxGeometry relative="1" as="geometry" />
        </mxCell>
        <mxCell id="XF1m2_q1DX8hMy2PzHUQ-40" value="tiene" style="rhombus;whiteSpace=wrap;html=1;fillColor=#d5e8d4;strokeColor=#82b366;" parent="1" vertex="1">
          <mxGeometry x="327.5" y="3370" width="80" height="80" as="geometry" />
        </mxCell>
        <mxCell id="XF1m2_q1DX8hMy2PzHUQ-41" value="1:1" style="text;html=1;align=center;verticalAlign=middle;resizable=0;points=[];autosize=1;strokeColor=none;fillColor=none;" parent="1" vertex="1">
          <mxGeometry x="235" y="3380" width="40" height="30" as="geometry" />
        </mxCell>
        <mxCell id="XF1m2_q1DX8hMy2PzHUQ-42" value="1:N" style="text;html=1;align=center;verticalAlign=middle;resizable=0;points=[];autosize=1;strokeColor=none;fillColor=none;" parent="1" vertex="1">
          <mxGeometry x="440" y="3380" width="40" height="30" as="geometry" />
        </mxCell>
        <mxCell id="XF1m2_q1DX8hMy2PzHUQ-43" value="1:N" style="text;html=1;align=center;verticalAlign=middle;resizable=0;points=[];autosize=1;strokeColor=none;fillColor=none;" parent="1" vertex="1">
          <mxGeometry x="350" y="3340" width="40" height="30" as="geometry" />
        </mxCell>
        <mxCell id="XF1m2_q1DX8hMy2PzHUQ-44" value="LIBRO" style="rounded=0;whiteSpace=wrap;html=1;fillColor=#dae8fc;strokeColor=#6c8ebf;" parent="1" vertex="1">
          <mxGeometry x="485" y="3487" width="120" height="60" as="geometry" />
        </mxCell>
        <mxCell id="XF1m2_q1DX8hMy2PzHUQ-46" value="GÉNERO" style="rounded=0;whiteSpace=wrap;html=1;fillColor=#dae8fc;strokeColor=#6c8ebf;" parent="1" vertex="1">
          <mxGeometry x="137.5" y="3487" width="120" height="60" as="geometry" />
        </mxCell>
        <mxCell id="XF1m2_q1DX8hMy2PzHUQ-47" style="edgeStyle=orthogonalEdgeStyle;rounded=0;orthogonalLoop=1;jettySize=auto;html=1;entryX=0;entryY=0.5;entryDx=0;entryDy=0;endArrow=none;endFill=0;exitX=1;exitY=0.5;exitDx=0;exitDy=0;" parent="1" source="XF1m2_q1DX8hMy2PzHUQ-48" target="XF1m2_q1DX8hMy2PzHUQ-44" edge="1">
          <mxGeometry relative="1" as="geometry">
            <Array as="points">
              <mxPoint x="440" y="3518" />
              <mxPoint x="485" y="3517" />
            </Array>
            <mxPoint x="440" y="3500" as="sourcePoint" />
          </mxGeometry>
        </mxCell>
        <mxCell id="XF1m2_q1DX8hMy2PzHUQ-52" style="edgeStyle=orthogonalEdgeStyle;rounded=0;orthogonalLoop=1;jettySize=auto;html=1;entryX=1;entryY=0.5;entryDx=0;entryDy=0;endArrow=none;endFill=0;" parent="1" source="XF1m2_q1DX8hMy2PzHUQ-48" target="XF1m2_q1DX8hMy2PzHUQ-46" edge="1">
          <mxGeometry relative="1" as="geometry" />
        </mxCell>
        <mxCell id="XF1m2_q1DX8hMy2PzHUQ-48" value="tiene" style="rhombus;whiteSpace=wrap;html=1;fillColor=#d5e8d4;strokeColor=#82b366;" parent="1" vertex="1">
          <mxGeometry x="327.5" y="3478" width="80" height="80" as="geometry" />
        </mxCell>
        <mxCell id="XF1m2_q1DX8hMy2PzHUQ-49" value="1:N" style="text;html=1;align=center;verticalAlign=middle;resizable=0;points=[];autosize=1;strokeColor=none;fillColor=none;" parent="1" vertex="1">
          <mxGeometry x="260" y="3492" width="40" height="30" as="geometry" />
        </mxCell>
        <mxCell id="XF1m2_q1DX8hMy2PzHUQ-50" value="1:N" style="text;html=1;align=center;verticalAlign=middle;resizable=0;points=[];autosize=1;strokeColor=none;fillColor=none;" parent="1" vertex="1">
          <mxGeometry x="510" y="3462" width="40" height="30" as="geometry" />
        </mxCell>
        <mxCell id="XF1m2_q1DX8hMy2PzHUQ-51" value="N:M" style="text;html=1;align=center;verticalAlign=middle;resizable=0;points=[];autosize=1;strokeColor=none;fillColor=none;" parent="1" vertex="1">
          <mxGeometry x="362.5" y="3462" width="50" height="30" as="geometry" />
        </mxCell>
        <mxCell id="XF1m2_q1DX8hMy2PzHUQ-54" style="edgeStyle=orthogonalEdgeStyle;rounded=0;orthogonalLoop=1;jettySize=auto;html=1;entryX=0.5;entryY=0;entryDx=0;entryDy=0;endArrow=none;endFill=0;" parent="1" source="XF1m2_q1DX8hMy2PzHUQ-53" target="XF1m2_q1DX8hMy2PzHUQ-20" edge="1">
          <mxGeometry relative="1" as="geometry" />
        </mxCell>
        <mxCell id="XF1m2_q1DX8hMy2PzHUQ-53" value="ID" style="ellipse;whiteSpace=wrap;html=1;align=center;fontStyle=4;fillColor=#e1d5e7;strokeColor=#9673a6;" parent="1" vertex="1">
          <mxGeometry x="885" y="529" width="100" height="40" as="geometry" />
        </mxCell>
        <mxCell id="XF1m2_q1DX8hMy2PzHUQ-56" style="edgeStyle=orthogonalEdgeStyle;rounded=0;orthogonalLoop=1;jettySize=auto;html=1;entryX=0;entryY=0.5;entryDx=0;entryDy=0;endArrow=none;endFill=0;" parent="1" source="XF1m2_q1DX8hMy2PzHUQ-55" target="XF1m2_q1DX8hMy2PzHUQ-1" edge="1">
          <mxGeometry relative="1" as="geometry" />
        </mxCell>
        <mxCell id="XF1m2_q1DX8hMy2PzHUQ-55" value="ID" style="ellipse;whiteSpace=wrap;html=1;align=center;fontStyle=4;fillColor=#e1d5e7;strokeColor=#9673a6;" parent="1" vertex="1">
          <mxGeometry x="860" y="819" width="100" height="40" as="geometry" />
        </mxCell>
        <mxCell id="XF1m2_q1DX8hMy2PzHUQ-58" style="edgeStyle=orthogonalEdgeStyle;rounded=0;orthogonalLoop=1;jettySize=auto;html=1;entryX=0.5;entryY=0;entryDx=0;entryDy=0;endArrow=none;endFill=0;" parent="1" source="XF1m2_q1DX8hMy2PzHUQ-57" target="XF1m2_q1DX8hMy2PzHUQ-28" edge="1">
          <mxGeometry relative="1" as="geometry" />
        </mxCell>
        <mxCell id="XF1m2_q1DX8hMy2PzHUQ-57" value="ID" style="ellipse;whiteSpace=wrap;html=1;align=center;fontStyle=4;fillColor=#e1d5e7;strokeColor=#9673a6;" parent="1" vertex="1">
          <mxGeometry x="800" y="944" width="100" height="40" as="geometry" />
        </mxCell>
        <mxCell id="XF1m2_q1DX8hMy2PzHUQ-60" style="edgeStyle=orthogonalEdgeStyle;rounded=0;orthogonalLoop=1;jettySize=auto;html=1;exitX=1;exitY=1;exitDx=0;exitDy=0;entryX=0;entryY=0;entryDx=0;entryDy=0;endArrow=none;endFill=0;" parent="1" source="XF1m2_q1DX8hMy2PzHUQ-59" target="yPODJ5ue4MWIPqrNUil7-1" edge="1">
          <mxGeometry relative="1" as="geometry" />
        </mxCell>
        <mxCell id="XF1m2_q1DX8hMy2PzHUQ-59" value="Email" style="whiteSpace=wrap;html=1;align=center;fillColor=#fff2cc;strokeColor=#d6b656;shape=doubleEllipse;perimeter=ellipsePerimeter;margin=3;" parent="1" vertex="1">
          <mxGeometry x="75" y="60" width="100" height="40" as="geometry" />
        </mxCell>
        <mxCell id="XF1m2_q1DX8hMy2PzHUQ-62" style="edgeStyle=orthogonalEdgeStyle;rounded=0;orthogonalLoop=1;jettySize=auto;html=1;exitX=1;exitY=0;exitDx=0;exitDy=0;entryX=0;entryY=1;entryDx=0;entryDy=0;endArrow=none;endFill=0;" parent="1" source="XF1m2_q1DX8hMy2PzHUQ-61" target="yPODJ5ue4MWIPqrNUil7-1" edge="1">
          <mxGeometry relative="1" as="geometry" />
        </mxCell>
        <mxCell id="XF1m2_q1DX8hMy2PzHUQ-61" value="Dirección" style="ellipse;whiteSpace=wrap;html=1;align=center;fillColor=#fff2cc;strokeColor=#d6b656;" parent="1" vertex="1">
          <mxGeometry x="65" y="180" width="100" height="40" as="geometry" />
        </mxCell>
        <mxCell id="XF1m2_q1DX8hMy2PzHUQ-63" value="ESTUDIANTE" style="rounded=0;whiteSpace=wrap;html=1;fillColor=#dae8fc;strokeColor=#6c8ebf;" parent="1" vertex="1">
          <mxGeometry x="157.5" y="1115" width="120" height="60" as="geometry" />
        </mxCell>
        <mxCell id="XF1m2_q1DX8hMy2PzHUQ-64" style="edgeStyle=orthogonalEdgeStyle;rounded=0;orthogonalLoop=1;jettySize=auto;html=1;entryX=0.5;entryY=0;entryDx=0;entryDy=0;endArrow=none;endFill=0;" parent="1" source="XF1m2_q1DX8hMy2PzHUQ-65" target="XF1m2_q1DX8hMy2PzHUQ-63" edge="1">
          <mxGeometry relative="1" as="geometry" />
        </mxCell>
        <mxCell id="XF1m2_q1DX8hMy2PzHUQ-65" value="dni" style="ellipse;whiteSpace=wrap;html=1;align=center;fontStyle=4;fillColor=#e1d5e7;strokeColor=#9673a6;" parent="1" vertex="1">
          <mxGeometry x="167.5" y="1035" width="100" height="40" as="geometry" />
        </mxCell>
        <mxCell id="XF1m2_q1DX8hMy2PzHUQ-66" style="edgeStyle=orthogonalEdgeStyle;rounded=0;orthogonalLoop=1;jettySize=auto;html=1;exitX=0.5;exitY=0;exitDx=0;exitDy=0;endArrow=none;endFill=0;" parent="1" source="XF1m2_q1DX8hMy2PzHUQ-67" edge="1">
          <mxGeometry relative="1" as="geometry">
            <mxPoint x="217.5" y="1175" as="targetPoint" />
          </mxGeometry>
        </mxCell>
        <mxCell id="XF1m2_q1DX8hMy2PzHUQ-67" value="nombre" style="ellipse;whiteSpace=wrap;html=1;align=center;fillColor=#fff2cc;strokeColor=#d6b656;" parent="1" vertex="1">
          <mxGeometry x="160" y="1205" width="100" height="40" as="geometry" />
        </mxCell>
        <mxCell id="XF1m2_q1DX8hMy2PzHUQ-68" style="edgeStyle=orthogonalEdgeStyle;rounded=0;orthogonalLoop=1;jettySize=auto;html=1;entryX=0;entryY=0.5;entryDx=0;entryDy=0;endArrow=none;endFill=0;" parent="1" source="XF1m2_q1DX8hMy2PzHUQ-69" target="XF1m2_q1DX8hMy2PzHUQ-63" edge="1">
          <mxGeometry relative="1" as="geometry" />
        </mxCell>
        <mxCell id="XF1m2_q1DX8hMy2PzHUQ-69" value="apellidos" style="ellipse;whiteSpace=wrap;html=1;align=center;fillColor=#fff2cc;strokeColor=#d6b656;" parent="1" vertex="1">
          <mxGeometry x="17.5" y="1125" width="100" height="40" as="geometry" />
        </mxCell>
        <mxCell id="XF1m2_q1DX8hMy2PzHUQ-70" style="edgeStyle=orthogonalEdgeStyle;rounded=0;orthogonalLoop=1;jettySize=auto;html=1;exitX=1;exitY=1;exitDx=0;exitDy=0;entryX=0;entryY=0;entryDx=0;entryDy=0;endArrow=none;endFill=0;" parent="1" source="XF1m2_q1DX8hMy2PzHUQ-71" target="XF1m2_q1DX8hMy2PzHUQ-63" edge="1">
          <mxGeometry relative="1" as="geometry" />
        </mxCell>
        <mxCell id="XF1m2_q1DX8hMy2PzHUQ-71" value="Email" style="whiteSpace=wrap;html=1;align=center;fillColor=#fff2cc;strokeColor=#d6b656;shape=doubleEllipse;perimeter=ellipsePerimeter;margin=3;" parent="1" vertex="1">
          <mxGeometry x="52.5" y="1065" width="100" height="40" as="geometry" />
        </mxCell>
        <mxCell id="XF1m2_q1DX8hMy2PzHUQ-72" style="edgeStyle=orthogonalEdgeStyle;rounded=0;orthogonalLoop=1;jettySize=auto;html=1;exitX=1;exitY=0;exitDx=0;exitDy=0;entryX=0;entryY=1;entryDx=0;entryDy=0;endArrow=none;endFill=0;" parent="1" source="XF1m2_q1DX8hMy2PzHUQ-73" target="XF1m2_q1DX8hMy2PzHUQ-63" edge="1">
          <mxGeometry relative="1" as="geometry" />
        </mxCell>
        <mxCell id="XF1m2_q1DX8hMy2PzHUQ-73" value="Dirección" style="ellipse;whiteSpace=wrap;html=1;align=center;fillColor=#fff2cc;strokeColor=#d6b656;" parent="1" vertex="1">
          <mxGeometry x="42.5" y="1185" width="100" height="40" as="geometry" />
        </mxCell>
        <mxCell id="XF1m2_q1DX8hMy2PzHUQ-74" value="ESTUDIANTE" style="rounded=0;whiteSpace=wrap;html=1;fillColor=#dae8fc;strokeColor=#6c8ebf;" parent="1" vertex="1">
          <mxGeometry x="160" y="1338" width="120" height="60" as="geometry" />
        </mxCell>
        <mxCell id="XF1m2_q1DX8hMy2PzHUQ-75" style="edgeStyle=orthogonalEdgeStyle;rounded=0;orthogonalLoop=1;jettySize=auto;html=1;entryX=0.5;entryY=0;entryDx=0;entryDy=0;endArrow=none;endFill=0;" parent="1" source="XF1m2_q1DX8hMy2PzHUQ-76" target="XF1m2_q1DX8hMy2PzHUQ-74" edge="1">
          <mxGeometry relative="1" as="geometry" />
        </mxCell>
        <mxCell id="XF1m2_q1DX8hMy2PzHUQ-76" value="dni" style="ellipse;whiteSpace=wrap;html=1;align=center;fontStyle=4;fillColor=#e1d5e7;strokeColor=#9673a6;" parent="1" vertex="1">
          <mxGeometry x="170" y="1258" width="100" height="40" as="geometry" />
        </mxCell>
        <mxCell id="XF1m2_q1DX8hMy2PzHUQ-77" style="edgeStyle=orthogonalEdgeStyle;rounded=0;orthogonalLoop=1;jettySize=auto;html=1;exitX=0.5;exitY=0;exitDx=0;exitDy=0;endArrow=none;endFill=0;" parent="1" source="XF1m2_q1DX8hMy2PzHUQ-78" edge="1">
          <mxGeometry relative="1" as="geometry">
            <mxPoint x="220" y="1398" as="targetPoint" />
          </mxGeometry>
        </mxCell>
        <mxCell id="XF1m2_q1DX8hMy2PzHUQ-78" value="nombre" style="ellipse;whiteSpace=wrap;html=1;align=center;fillColor=#fff2cc;strokeColor=#d6b656;" parent="1" vertex="1">
          <mxGeometry x="162.5" y="1428" width="100" height="40" as="geometry" />
        </mxCell>
        <mxCell id="XF1m2_q1DX8hMy2PzHUQ-79" style="edgeStyle=orthogonalEdgeStyle;rounded=0;orthogonalLoop=1;jettySize=auto;html=1;entryX=0;entryY=0.5;entryDx=0;entryDy=0;endArrow=none;endFill=0;" parent="1" source="XF1m2_q1DX8hMy2PzHUQ-80" target="XF1m2_q1DX8hMy2PzHUQ-74" edge="1">
          <mxGeometry relative="1" as="geometry" />
        </mxCell>
        <mxCell id="XF1m2_q1DX8hMy2PzHUQ-80" value="apellidos" style="ellipse;whiteSpace=wrap;html=1;align=center;fillColor=#fff2cc;strokeColor=#d6b656;" parent="1" vertex="1">
          <mxGeometry x="20" y="1348" width="100" height="40" as="geometry" />
        </mxCell>
        <mxCell id="XF1m2_q1DX8hMy2PzHUQ-81" style="edgeStyle=orthogonalEdgeStyle;rounded=0;orthogonalLoop=1;jettySize=auto;html=1;exitX=1;exitY=1;exitDx=0;exitDy=0;entryX=0;entryY=0;entryDx=0;entryDy=0;endArrow=none;endFill=0;" parent="1" source="XF1m2_q1DX8hMy2PzHUQ-82" target="XF1m2_q1DX8hMy2PzHUQ-74" edge="1">
          <mxGeometry relative="1" as="geometry" />
        </mxCell>
        <mxCell id="XF1m2_q1DX8hMy2PzHUQ-82" value="Email" style="whiteSpace=wrap;html=1;align=center;fillColor=#fff2cc;strokeColor=#d6b656;shape=doubleEllipse;perimeter=ellipsePerimeter;margin=3;" parent="1" vertex="1">
          <mxGeometry x="55" y="1288" width="100" height="40" as="geometry" />
        </mxCell>
        <mxCell id="XF1m2_q1DX8hMy2PzHUQ-83" style="edgeStyle=orthogonalEdgeStyle;rounded=0;orthogonalLoop=1;jettySize=auto;html=1;exitX=1;exitY=0;exitDx=0;exitDy=0;entryX=0;entryY=1;entryDx=0;entryDy=0;endArrow=none;endFill=0;" parent="1" source="XF1m2_q1DX8hMy2PzHUQ-84" target="XF1m2_q1DX8hMy2PzHUQ-74" edge="1">
          <mxGeometry relative="1" as="geometry" />
        </mxCell>
        <mxCell id="XF1m2_q1DX8hMy2PzHUQ-84" value="Dirección" style="ellipse;whiteSpace=wrap;html=1;align=center;fillColor=#fff2cc;strokeColor=#d6b656;" parent="1" vertex="1">
          <mxGeometry x="45" y="1408" width="100" height="40" as="geometry" />
        </mxCell>
        <mxCell id="XF1m2_q1DX8hMy2PzHUQ-86" style="edgeStyle=orthogonalEdgeStyle;rounded=0;orthogonalLoop=1;jettySize=auto;html=1;entryX=0;entryY=0.75;entryDx=0;entryDy=0;endArrow=none;endFill=0;" parent="1" source="XF1m2_q1DX8hMy2PzHUQ-85" target="VDzh7EiB1U5KI5voId9q-179" edge="1">
          <mxGeometry relative="1" as="geometry" />
        </mxCell>
        <mxCell id="XF1m2_q1DX8hMy2PzHUQ-85" value="Email" style="whiteSpace=wrap;html=1;align=center;fillColor=#fff2cc;strokeColor=#d6b656;shape=doubleEllipse;perimeter=ellipsePerimeter;margin=3;" parent="1" vertex="1">
          <mxGeometry x="1240" y="922" width="100" height="40" as="geometry" />
        </mxCell>
        <mxCell id="XF1m2_q1DX8hMy2PzHUQ-89" style="edgeStyle=orthogonalEdgeStyle;rounded=0;orthogonalLoop=1;jettySize=auto;html=1;entryX=0;entryY=0;entryDx=0;entryDy=0;endArrow=none;endFill=0;" parent="1" source="XF1m2_q1DX8hMy2PzHUQ-88" target="VDzh7EiB1U5KI5voId9q-179" edge="1">
          <mxGeometry relative="1" as="geometry" />
        </mxCell>
        <mxCell id="XF1m2_q1DX8hMy2PzHUQ-88" value="Dirección" style="ellipse;whiteSpace=wrap;html=1;align=center;fillColor=#fff2cc;strokeColor=#d6b656;" parent="1" vertex="1">
          <mxGeometry x="1260" y="724" width="100" height="40" as="geometry" />
        </mxCell>
        <mxCell id="XF1m2_q1DX8hMy2PzHUQ-90" value="ESTUDIANTE" style="rounded=0;whiteSpace=wrap;html=1;fillColor=#dae8fc;strokeColor=#6c8ebf;" parent="1" vertex="1">
          <mxGeometry x="140" y="2895" width="120" height="60" as="geometry" />
        </mxCell>
        <mxCell id="XF1m2_q1DX8hMy2PzHUQ-91" style="edgeStyle=orthogonalEdgeStyle;rounded=0;orthogonalLoop=1;jettySize=auto;html=1;entryX=0.5;entryY=0;entryDx=0;entryDy=0;endArrow=none;endFill=0;" parent="1" source="XF1m2_q1DX8hMy2PzHUQ-92" target="XF1m2_q1DX8hMy2PzHUQ-90" edge="1">
          <mxGeometry relative="1" as="geometry" />
        </mxCell>
        <mxCell id="XF1m2_q1DX8hMy2PzHUQ-92" value="dni" style="ellipse;whiteSpace=wrap;html=1;align=center;fontStyle=4;fillColor=#e1d5e7;strokeColor=#9673a6;" parent="1" vertex="1">
          <mxGeometry x="150" y="2815" width="100" height="40" as="geometry" />
        </mxCell>
        <mxCell id="XF1m2_q1DX8hMy2PzHUQ-93" style="edgeStyle=orthogonalEdgeStyle;rounded=0;orthogonalLoop=1;jettySize=auto;html=1;exitX=0.5;exitY=0;exitDx=0;exitDy=0;endArrow=none;endFill=0;" parent="1" source="XF1m2_q1DX8hMy2PzHUQ-94" edge="1">
          <mxGeometry relative="1" as="geometry">
            <mxPoint x="200" y="2955" as="targetPoint" />
          </mxGeometry>
        </mxCell>
        <mxCell id="XF1m2_q1DX8hMy2PzHUQ-94" value="nombre" style="ellipse;whiteSpace=wrap;html=1;align=center;fillColor=#fff2cc;strokeColor=#d6b656;" parent="1" vertex="1">
          <mxGeometry x="142.5" y="2985" width="100" height="40" as="geometry" />
        </mxCell>
        <mxCell id="XF1m2_q1DX8hMy2PzHUQ-95" style="edgeStyle=orthogonalEdgeStyle;rounded=0;orthogonalLoop=1;jettySize=auto;html=1;entryX=0;entryY=0.5;entryDx=0;entryDy=0;endArrow=none;endFill=0;" parent="1" source="XF1m2_q1DX8hMy2PzHUQ-96" target="XF1m2_q1DX8hMy2PzHUQ-90" edge="1">
          <mxGeometry relative="1" as="geometry" />
        </mxCell>
        <mxCell id="XF1m2_q1DX8hMy2PzHUQ-96" value="apellidos" style="ellipse;whiteSpace=wrap;html=1;align=center;fillColor=#fff2cc;strokeColor=#d6b656;" parent="1" vertex="1">
          <mxGeometry y="2905" width="100" height="40" as="geometry" />
        </mxCell>
        <mxCell id="XF1m2_q1DX8hMy2PzHUQ-97" style="edgeStyle=orthogonalEdgeStyle;rounded=0;orthogonalLoop=1;jettySize=auto;html=1;exitX=1;exitY=1;exitDx=0;exitDy=0;entryX=0;entryY=0;entryDx=0;entryDy=0;endArrow=none;endFill=0;" parent="1" source="XF1m2_q1DX8hMy2PzHUQ-98" target="XF1m2_q1DX8hMy2PzHUQ-90" edge="1">
          <mxGeometry relative="1" as="geometry" />
        </mxCell>
        <mxCell id="XF1m2_q1DX8hMy2PzHUQ-98" value="Email" style="whiteSpace=wrap;html=1;align=center;fillColor=#fff2cc;strokeColor=#d6b656;shape=doubleEllipse;perimeter=ellipsePerimeter;margin=3;" parent="1" vertex="1">
          <mxGeometry x="35" y="2845" width="100" height="40" as="geometry" />
        </mxCell>
        <mxCell id="XF1m2_q1DX8hMy2PzHUQ-99" style="edgeStyle=orthogonalEdgeStyle;rounded=0;orthogonalLoop=1;jettySize=auto;html=1;exitX=1;exitY=0;exitDx=0;exitDy=0;entryX=0;entryY=1;entryDx=0;entryDy=0;endArrow=none;endFill=0;" parent="1" source="XF1m2_q1DX8hMy2PzHUQ-100" target="XF1m2_q1DX8hMy2PzHUQ-90" edge="1">
          <mxGeometry relative="1" as="geometry" />
        </mxCell>
        <mxCell id="XF1m2_q1DX8hMy2PzHUQ-100" value="Dirección" style="ellipse;whiteSpace=wrap;html=1;align=center;fillColor=#fff2cc;strokeColor=#d6b656;" parent="1" vertex="1">
          <mxGeometry x="25" y="2965" width="100" height="40" as="geometry" />
        </mxCell>
        <mxCell id="XF1m2_q1DX8hMy2PzHUQ-112" value="ESTUDIANTE" style="rounded=0;whiteSpace=wrap;html=1;fillColor=#dae8fc;strokeColor=#6c8ebf;" parent="1" vertex="1">
          <mxGeometry x="160" y="1890" width="120" height="60" as="geometry" />
        </mxCell>
        <mxCell id="XF1m2_q1DX8hMy2PzHUQ-113" style="edgeStyle=orthogonalEdgeStyle;rounded=0;orthogonalLoop=1;jettySize=auto;html=1;entryX=0.5;entryY=0;entryDx=0;entryDy=0;endArrow=none;endFill=0;" parent="1" source="XF1m2_q1DX8hMy2PzHUQ-114" target="XF1m2_q1DX8hMy2PzHUQ-112" edge="1">
          <mxGeometry relative="1" as="geometry" />
        </mxCell>
        <mxCell id="XF1m2_q1DX8hMy2PzHUQ-114" value="dni" style="ellipse;whiteSpace=wrap;html=1;align=center;fontStyle=4;fillColor=#e1d5e7;strokeColor=#9673a6;" parent="1" vertex="1">
          <mxGeometry x="170" y="1810" width="100" height="40" as="geometry" />
        </mxCell>
        <mxCell id="XF1m2_q1DX8hMy2PzHUQ-115" style="edgeStyle=orthogonalEdgeStyle;rounded=0;orthogonalLoop=1;jettySize=auto;html=1;exitX=0.5;exitY=0;exitDx=0;exitDy=0;endArrow=none;endFill=0;" parent="1" source="XF1m2_q1DX8hMy2PzHUQ-116" edge="1">
          <mxGeometry relative="1" as="geometry">
            <mxPoint x="220" y="1950" as="targetPoint" />
          </mxGeometry>
        </mxCell>
        <mxCell id="XF1m2_q1DX8hMy2PzHUQ-116" value="nombre" style="ellipse;whiteSpace=wrap;html=1;align=center;fillColor=#fff2cc;strokeColor=#d6b656;" parent="1" vertex="1">
          <mxGeometry x="162.5" y="1980" width="100" height="40" as="geometry" />
        </mxCell>
        <mxCell id="XF1m2_q1DX8hMy2PzHUQ-117" style="edgeStyle=orthogonalEdgeStyle;rounded=0;orthogonalLoop=1;jettySize=auto;html=1;entryX=0;entryY=0.5;entryDx=0;entryDy=0;endArrow=none;endFill=0;" parent="1" source="XF1m2_q1DX8hMy2PzHUQ-118" target="XF1m2_q1DX8hMy2PzHUQ-112" edge="1">
          <mxGeometry relative="1" as="geometry" />
        </mxCell>
        <mxCell id="XF1m2_q1DX8hMy2PzHUQ-118" value="apellidos" style="ellipse;whiteSpace=wrap;html=1;align=center;fillColor=#fff2cc;strokeColor=#d6b656;" parent="1" vertex="1">
          <mxGeometry x="20" y="1900" width="100" height="40" as="geometry" />
        </mxCell>
        <mxCell id="XF1m2_q1DX8hMy2PzHUQ-119" style="edgeStyle=orthogonalEdgeStyle;rounded=0;orthogonalLoop=1;jettySize=auto;html=1;exitX=1;exitY=1;exitDx=0;exitDy=0;entryX=0;entryY=0;entryDx=0;entryDy=0;endArrow=none;endFill=0;" parent="1" source="XF1m2_q1DX8hMy2PzHUQ-120" target="XF1m2_q1DX8hMy2PzHUQ-112" edge="1">
          <mxGeometry relative="1" as="geometry" />
        </mxCell>
        <mxCell id="XF1m2_q1DX8hMy2PzHUQ-120" value="Email" style="whiteSpace=wrap;html=1;align=center;fillColor=#fff2cc;strokeColor=#d6b656;shape=doubleEllipse;perimeter=ellipsePerimeter;margin=3;" parent="1" vertex="1">
          <mxGeometry x="55" y="1840" width="100" height="40" as="geometry" />
        </mxCell>
        <mxCell id="XF1m2_q1DX8hMy2PzHUQ-121" style="edgeStyle=orthogonalEdgeStyle;rounded=0;orthogonalLoop=1;jettySize=auto;html=1;exitX=1;exitY=0;exitDx=0;exitDy=0;entryX=0;entryY=1;entryDx=0;entryDy=0;endArrow=none;endFill=0;" parent="1" source="XF1m2_q1DX8hMy2PzHUQ-122" target="XF1m2_q1DX8hMy2PzHUQ-112" edge="1">
          <mxGeometry relative="1" as="geometry" />
        </mxCell>
        <mxCell id="XF1m2_q1DX8hMy2PzHUQ-122" value="Dirección" style="ellipse;whiteSpace=wrap;html=1;align=center;fillColor=#fff2cc;strokeColor=#d6b656;" parent="1" vertex="1">
          <mxGeometry x="45" y="1960" width="100" height="40" as="geometry" />
        </mxCell>
        <mxCell id="1VethCZjKVZft2KimL8s-1" value="LIBRO" style="rounded=0;whiteSpace=wrap;html=1;fillColor=#dae8fc;strokeColor=#6c8ebf;" vertex="1" parent="1">
          <mxGeometry x="1075" y="1645" width="120" height="60" as="geometry" />
        </mxCell>
        <mxCell id="1VethCZjKVZft2KimL8s-2" style="edgeStyle=orthogonalEdgeStyle;rounded=0;orthogonalLoop=1;jettySize=auto;html=1;entryX=1;entryY=0.5;entryDx=0;entryDy=0;endArrow=none;endFill=0;" edge="1" parent="1" source="1VethCZjKVZft2KimL8s-4">
          <mxGeometry relative="1" as="geometry">
            <mxPoint x="895" y="1675" as="targetPoint" />
          </mxGeometry>
        </mxCell>
        <mxCell id="1VethCZjKVZft2KimL8s-3" style="edgeStyle=orthogonalEdgeStyle;rounded=0;orthogonalLoop=1;jettySize=auto;html=1;entryX=0;entryY=0.5;entryDx=0;entryDy=0;endArrow=none;endFill=0;" edge="1" parent="1" source="1VethCZjKVZft2KimL8s-4" target="1VethCZjKVZft2KimL8s-1">
          <mxGeometry relative="1" as="geometry" />
        </mxCell>
        <mxCell id="1VethCZjKVZft2KimL8s-4" value="prestado" style="rhombus;whiteSpace=wrap;html=1;fillColor=#d5e8d4;strokeColor=#82b366;" vertex="1" parent="1">
          <mxGeometry x="945" y="1635" width="80" height="80" as="geometry" />
        </mxCell>
        <mxCell id="1VethCZjKVZft2KimL8s-5" value="1:1" style="text;html=1;align=center;verticalAlign=middle;resizable=0;points=[];autosize=1;strokeColor=none;fillColor=none;" vertex="1" parent="1">
          <mxGeometry x="1030" y="1645" width="40" height="30" as="geometry" />
        </mxCell>
        <mxCell id="1VethCZjKVZft2KimL8s-6" value="1:1" style="text;html=1;align=center;verticalAlign=middle;resizable=0;points=[];autosize=1;strokeColor=none;fillColor=none;" vertex="1" parent="1">
          <mxGeometry x="900" y="1645" width="40" height="30" as="geometry" />
        </mxCell>
        <mxCell id="1VethCZjKVZft2KimL8s-7" value="1:1" style="text;html=1;align=center;verticalAlign=middle;resizable=0;points=[];autosize=1;strokeColor=none;fillColor=none;" vertex="1" parent="1">
          <mxGeometry x="965" y="1615" width="40" height="30" as="geometry" />
        </mxCell>
        <mxCell id="1VethCZjKVZft2KimL8s-8" style="edgeStyle=orthogonalEdgeStyle;rounded=0;orthogonalLoop=1;jettySize=auto;html=1;entryX=0.5;entryY=0;entryDx=0;entryDy=0;endArrow=none;endFill=0;" edge="1" parent="1" source="1VethCZjKVZft2KimL8s-9">
          <mxGeometry relative="1" as="geometry">
            <mxPoint x="1135" y="1645" as="targetPoint" />
          </mxGeometry>
        </mxCell>
        <mxCell id="1VethCZjKVZft2KimL8s-9" value="ID" style="ellipse;whiteSpace=wrap;html=1;align=center;fontStyle=4;fillColor=#e1d5e7;strokeColor=#9673a6;" vertex="1" parent="1">
          <mxGeometry x="1085" y="1573" width="100" height="40" as="geometry" />
        </mxCell>
        <mxCell id="1VethCZjKVZft2KimL8s-10" value="ESTUDIANTE" style="rounded=0;whiteSpace=wrap;html=1;fillColor=#dae8fc;strokeColor=#6c8ebf;" vertex="1" parent="1">
          <mxGeometry x="775" y="1645" width="120" height="60" as="geometry" />
        </mxCell>
        <mxCell id="1VethCZjKVZft2KimL8s-11" style="edgeStyle=orthogonalEdgeStyle;rounded=0;orthogonalLoop=1;jettySize=auto;html=1;entryX=0.5;entryY=0;entryDx=0;entryDy=0;endArrow=none;endFill=0;" edge="1" parent="1" source="1VethCZjKVZft2KimL8s-12" target="1VethCZjKVZft2KimL8s-10">
          <mxGeometry relative="1" as="geometry" />
        </mxCell>
        <mxCell id="1VethCZjKVZft2KimL8s-12" value="dni" style="ellipse;whiteSpace=wrap;html=1;align=center;fontStyle=4;fillColor=#e1d5e7;strokeColor=#9673a6;" vertex="1" parent="1">
          <mxGeometry x="785" y="1565" width="100" height="40" as="geometry" />
        </mxCell>
        <mxCell id="1VethCZjKVZft2KimL8s-13" style="edgeStyle=orthogonalEdgeStyle;rounded=0;orthogonalLoop=1;jettySize=auto;html=1;exitX=0.5;exitY=0;exitDx=0;exitDy=0;endArrow=none;endFill=0;" edge="1" parent="1" source="1VethCZjKVZft2KimL8s-14">
          <mxGeometry relative="1" as="geometry">
            <mxPoint x="835" y="1705" as="targetPoint" />
          </mxGeometry>
        </mxCell>
        <mxCell id="1VethCZjKVZft2KimL8s-14" value="nombre" style="ellipse;whiteSpace=wrap;html=1;align=center;fillColor=#fff2cc;strokeColor=#d6b656;" vertex="1" parent="1">
          <mxGeometry x="777.5" y="1735" width="100" height="40" as="geometry" />
        </mxCell>
        <mxCell id="1VethCZjKVZft2KimL8s-15" style="edgeStyle=orthogonalEdgeStyle;rounded=0;orthogonalLoop=1;jettySize=auto;html=1;entryX=0;entryY=0.5;entryDx=0;entryDy=0;endArrow=none;endFill=0;" edge="1" parent="1" source="1VethCZjKVZft2KimL8s-16" target="1VethCZjKVZft2KimL8s-10">
          <mxGeometry relative="1" as="geometry" />
        </mxCell>
        <mxCell id="1VethCZjKVZft2KimL8s-16" value="apellidos" style="ellipse;whiteSpace=wrap;html=1;align=center;fillColor=#fff2cc;strokeColor=#d6b656;" vertex="1" parent="1">
          <mxGeometry x="635" y="1655" width="100" height="40" as="geometry" />
        </mxCell>
        <mxCell id="1VethCZjKVZft2KimL8s-17" style="edgeStyle=orthogonalEdgeStyle;rounded=0;orthogonalLoop=1;jettySize=auto;html=1;exitX=1;exitY=1;exitDx=0;exitDy=0;entryX=0;entryY=0;entryDx=0;entryDy=0;endArrow=none;endFill=0;" edge="1" parent="1" source="1VethCZjKVZft2KimL8s-18" target="1VethCZjKVZft2KimL8s-10">
          <mxGeometry relative="1" as="geometry" />
        </mxCell>
        <mxCell id="1VethCZjKVZft2KimL8s-18" value="Email" style="whiteSpace=wrap;html=1;align=center;fillColor=#fff2cc;strokeColor=#d6b656;shape=doubleEllipse;perimeter=ellipsePerimeter;margin=3;" vertex="1" parent="1">
          <mxGeometry x="670" y="1595" width="100" height="40" as="geometry" />
        </mxCell>
        <mxCell id="1VethCZjKVZft2KimL8s-19" style="edgeStyle=orthogonalEdgeStyle;rounded=0;orthogonalLoop=1;jettySize=auto;html=1;exitX=1;exitY=0;exitDx=0;exitDy=0;entryX=0;entryY=1;entryDx=0;entryDy=0;endArrow=none;endFill=0;" edge="1" parent="1" source="1VethCZjKVZft2KimL8s-20" target="1VethCZjKVZft2KimL8s-10">
          <mxGeometry relative="1" as="geometry" />
        </mxCell>
        <mxCell id="1VethCZjKVZft2KimL8s-20" value="Dirección" style="ellipse;whiteSpace=wrap;html=1;align=center;fillColor=#fff2cc;strokeColor=#d6b656;" vertex="1" parent="1">
          <mxGeometry x="660" y="1715" width="100" height="40" as="geometry" />
        </mxCell>
      </root>
    </mxGraphModel>
  </diagram>
</mxfile>
